<svg width="546" height="268" viewBox="0 0 546 268" fill="none" xmlns="http://www.w3.org/2000/svg">
<path d="M4.78987 215.346C11.4794 210.069 19.9299 207.466 30.0196 207.466C47.371 207.466 56.0467 217.323 56.0467 237.037V266.276H37.9994V261.11H37.1798C32.9154 264.982 27.3341 267.082 21.5746 266.98C15.5884 266.98 10.6598 265.318 6.66714 261.935C2.7963 258.529 0.802734 254.536 0.802734 249.73C0.802734 241.866 4.08658 236.351 9.60212 233.67C15.1398 230.852 20.5169 229.794 27.0901 229.794H37.9994C37.9994 224.744 33.6578 220.524 26.7357 220.524C21.6909 220.524 16.4079 222.517 10.8924 226.388L4.78987 215.346ZM37.9052 243.156V241.75H28.1423C22.1616 241.75 19.1103 243.743 19.1103 247.841C19.1103 251.241 21.6909 253.589 26.3813 253.589C32.6001 253.6 37.9052 249.375 37.9052 243.156ZM29.2 188.477H43.8693L32.3675 202.438H21.6909L29.2 188.477Z" fill="white"/>
<path d="M104.181 209.011L100.304 225.203C98.3107 224.029 95.3758 223.442 91.7375 223.442C85.6461 223.442 80.4739 227.905 80.4739 233.886V266.276H62.2715V208.307H80.5735V215.113H81.1605C84.0955 210.534 89.611 207.482 94.8884 207.482C98.787 207.466 101.838 207.953 104.181 209.011Z" fill="white"/>
<path d="M120.613 245.149C120.613 251.368 125.425 254.657 132.114 254.657C138.206 254.657 145.255 252.542 148.174 249.12L156.857 257.687C150.284 264.022 141.833 267.189 131.627 267.189C121.183 267.189 113.674 264.841 108.862 260.035C104.166 255.235 101.82 249.367 101.823 242.43V233.415C101.823 226.731 104.404 220.745 109.449 215.462C114.493 210.179 121.432 207.465 129.999 207.465C146.546 207.465 156.17 215.096 156.17 225.889C156.17 231.427 153.955 235.984 149.359 239.617C144.901 243.255 139.269 245.155 132.58 245.155L120.613 245.149ZM130.819 233.415C135.869 233.415 139.385 230.718 139.385 226.144C139.385 222.389 136.218 219.803 131.406 219.803C125.187 219.803 120.258 224.854 120.258 233.415H130.819Z" fill="white"/>
<path d="M159.685 215.345C166.38 210.068 174.825 207.465 184.915 207.465C202.266 207.465 210.942 217.322 210.942 237.037V266.276H192.895V261.109H192.075C187.811 264.981 182.23 267.081 176.47 266.979C170.484 266.979 165.555 265.318 161.563 261.934C157.686 258.528 155.698 254.541 155.698 249.751C155.698 241.888 158.982 236.372 164.498 233.692C170.035 230.873 175.412 229.815 181.986 229.815H192.895C192.895 224.765 188.553 220.545 181.631 220.545C176.586 220.545 171.303 222.539 165.788 226.41L159.685 215.345ZM192.779 243.156V241.749H183.038C177.057 241.749 174.006 243.743 174.006 247.841C174.006 251.241 176.586 253.589 181.277 253.589C187.496 253.6 192.779 249.375 192.779 243.156V243.156Z" fill="white"/>
<path d="M267.997 248.905C265.062 259.587 256.025 267.096 241.593 267.096C233.287 267.096 226.575 264.632 221.292 259.819C216.015 254.891 213.434 248.905 213.434 241.983V232.713C213.383 229.307 214.069 225.931 215.445 222.816C216.822 219.7 218.856 216.92 221.409 214.665C226.692 209.853 233.497 207.389 241.593 207.389C256.263 207.389 265.533 215.368 267.997 226.045L250.393 230.509C249.961 228.417 248.808 226.543 247.137 225.213C245.465 223.884 243.38 223.183 241.245 223.232C239.989 223.223 238.743 223.462 237.579 223.935C236.416 224.408 235.356 225.106 234.463 225.988C233.569 226.871 232.858 227.921 232.37 229.079C231.882 230.236 231.627 231.479 231.62 232.735V241.888C231.62 247.05 236.078 251.275 241.245 251.275C243.309 251.303 245.322 250.635 246.96 249.379C248.599 248.124 249.767 246.353 250.277 244.353L267.997 248.905Z" fill="white"/>
<path d="M286.182 245.149C286.182 251.368 290.995 254.657 297.684 254.657C303.776 254.657 310.825 252.542 313.743 249.12L322.427 257.687C315.853 264.022 307.408 267.189 297.197 267.189C286.753 267.189 279.244 264.841 274.431 260.035C269.743 255.235 267.397 249.367 267.393 242.43V233.415C267.393 226.731 269.974 220.745 275.018 215.462C280.063 210.179 287.008 207.465 295.574 207.465C312.115 207.465 321.74 215.096 321.74 225.889C321.74 231.427 319.525 235.984 314.934 239.617C310.504 243.255 304.844 245.155 298.155 245.155L286.182 245.149ZM296.394 233.415C301.439 233.415 304.961 230.718 304.961 226.144C304.961 222.389 301.793 219.803 296.981 219.803C290.762 219.803 285.834 224.854 285.834 233.415H296.394Z" fill="white"/>
<path d="M380.883 266.277H362.576V237.642C362.635 235.119 362.395 232.599 361.862 230.133C361.042 226.256 358.578 223.21 353.411 223.21C347.873 223.21 343.908 227.087 343.908 232.597V266.277H325.612V208.309H344.036V215.114H344.506C347.203 210.773 353.92 207.483 360.815 207.483C374.194 207.483 380.883 215.111 380.883 230.365V266.277Z" fill="white"/>
<path d="M407.75 208.307H419.484V220.628H407.75V243.394C407.75 248.904 409.743 251.147 415.375 251.147H419.484V266.276H414.555C396.37 266.276 389.442 259.702 389.442 243.394V220.628H381.241V208.307H389.453V193.521H407.761L407.75 208.307Z" fill="white"/>
<path d="M464.428 209.011L460.552 225.203C458.558 224.029 455.623 223.442 451.985 223.442C445.894 223.442 440.721 227.905 440.721 233.886V266.276H422.536V208.307H440.81V215.113H441.397C444.332 210.534 449.848 207.482 455.13 207.482C459.029 207.466 462.091 207.953 464.428 209.011Z" fill="white"/>
<path d="M463.024 215.345C469.708 210.068 478.153 207.465 488.248 207.465C505.621 207.465 514.297 217.322 514.275 237.037V266.276H496.228V261.109H495.408C491.147 264.98 485.57 267.079 479.814 266.979C473.828 266.979 468.899 265.318 464.912 261.934C461.036 258.528 459.042 254.541 459.042 249.751C459.042 241.888 462.326 236.372 467.841 233.692C473.379 230.873 478.756 229.815 485.329 229.815H496.239C496.239 224.765 491.897 220.545 484.975 220.545C479.93 220.545 474.647 222.539 469.132 226.41L463.024 215.345ZM496.111 243.156V241.749H486.37C480.39 241.749 477.339 243.743 477.339 247.841C477.339 251.241 479.919 253.589 484.615 253.589C490.834 253.6 496.111 249.375 496.111 243.156V243.156Z" fill="white"/>
<path d="M545.629 251.02V266.392H537.771C524.746 266.392 518.289 259 518.289 244.33V183.416H536.713V244.214C536.713 248.788 539.061 251.02 543.751 251.02H545.629Z" fill="white"/>
<path fill-rule="evenodd" clip-rule="evenodd" d="M192.79 0.276367H354.798V162.285H192.79V0.276367ZM213.577 55.4855C221.495 49.2674 231.482 46.2007 243.415 46.2007C263.935 46.2007 274.196 57.8148 274.196 81.043L274.196 115.494H252.852V109.406H251.883C246.839 113.969 240.239 116.443 233.427 116.323C226.347 116.323 220.519 114.365 215.797 110.378C211.212 106.366 208.861 101.668 208.861 96.0239C208.861 86.7588 212.745 80.2601 219.268 77.1021C225.817 73.781 232.176 72.5347 239.95 72.5347H252.852C252.852 66.5841 247.717 61.6123 239.531 61.6123C233.565 61.6123 227.317 63.9612 220.794 68.522L213.577 55.4855ZM252.714 86.5956V88.2529C252.714 95.5803 246.467 100.559 239.112 100.546C233.565 100.546 230.513 97.7791 230.513 93.7729C230.513 88.9446 234.121 86.5956 241.194 86.5956H252.714ZM307.502 116.456C324.569 116.456 335.257 107.608 338.728 95.0216L317.771 89.6583C317.168 92.0152 315.786 94.1014 313.849 95.5809C311.911 97.0604 309.53 97.8471 307.089 97.8143C300.979 97.8143 295.706 92.8359 295.706 86.7548V75.9693C295.715 74.4893 296.016 73.0254 296.593 71.6615C297.17 70.2976 298.011 69.0603 299.068 68.0204C300.125 66.9806 301.378 66.1585 302.754 65.6013C304.13 65.044 305.603 64.7625 307.089 64.7728C309.614 64.7146 312.08 65.5407 314.057 67.1073C316.034 68.674 317.397 70.8818 317.908 73.3463L338.728 68.0874C335.814 55.5076 324.85 46.1054 307.501 46.1054C297.927 46.1054 289.878 49.0089 283.63 54.679C280.611 57.3356 278.205 60.6116 276.577 64.2822C274.949 67.9527 274.138 71.9308 274.199 75.9432L274.199 86.8657C274.199 95.0217 277.251 102.075 283.492 107.882C289.74 113.552 297.678 116.456 307.502 116.456Z" fill="white"/>
</svg>
