<svg width="789" height="117" viewBox="0 0 789 117" fill="none" xmlns="http://www.w3.org/2000/svg">
<path opacity="0.5" d="M21.9074 110.643L21.5411 111.335L21.5533 111.342L21.9074 110.643ZM6.49943 96.3875L5.82905 96.7919L5.83381 96.7995L6.49943 96.3875ZM6.49943 55.2035L5.83377 54.7914L5.82909 54.7992L6.49943 55.2035ZM21.9074 41.0915L22.2657 41.7875L22.2695 41.7855L21.9074 41.0915ZM65.5394 41.0915L65.151 41.7712L65.1574 41.7748L65.1638 41.7783L65.5394 41.0915ZM78.9314 55.6355L79.3019 56.3251L79.9391 55.9828L79.6481 55.3206L78.9314 55.6355ZM61.5074 64.9955L60.8266 65.3819L61.2041 66.0471L61.8779 65.6851L61.5074 64.9955ZM29.5394 60.0995L28.9859 59.5459L29.5394 60.0995ZM61.5074 86.5955L61.8823 85.9082L61.1996 85.5358L60.8227 86.2161L61.5074 86.5955ZM78.9314 96.0995L79.6445 96.4226L79.9446 95.7604L79.3063 95.4122L78.9314 96.0995ZM65.5394 110.499L65.1556 109.817L65.151 109.82L65.5394 110.499ZM44.2274 114.901C36.0806 114.901 28.7641 113.244 22.2616 109.945L21.5533 111.342C28.2988 114.763 35.8623 116.466 44.2274 116.466V114.901ZM22.2737 109.952C15.8636 106.558 10.833 101.901 7.16506 95.9754L5.83381 96.7995C9.65386 102.97 14.8952 107.817 21.5412 111.335L22.2737 109.952ZM7.16977 95.9832C3.60176 90.0678 1.81028 83.3459 1.81028 75.7955H0.244593C0.244593 83.6051 2.10111 90.6112 5.82909 96.7918L7.16977 95.9832ZM1.81028 75.7955C1.81028 68.2451 3.60176 61.5232 7.16977 55.6078L5.82909 54.7992C2.10111 60.9798 0.244593 67.9859 0.244593 75.7955H1.81028ZM7.16506 55.6155C10.8318 49.6924 15.8598 45.0847 22.2657 41.7875L21.5492 40.3954C14.8991 43.8183 9.65508 48.6186 5.83381 54.7914L7.16506 55.6155ZM22.2695 41.7855C28.7704 38.3938 36.0841 36.6903 44.2274 36.6903V35.1247C35.8588 35.1247 28.2925 36.8772 21.5453 40.3974L22.2695 41.7855ZM44.2274 36.6903C52.2747 36.6903 59.2402 38.3936 65.151 41.7712L65.9278 40.4118C59.7427 36.8774 52.5001 35.1247 44.2274 35.1247V36.6903ZM65.1638 41.7783C71.1581 45.0565 75.5011 49.7747 78.2147 55.9504L79.6481 55.3206C76.7937 48.8243 72.2087 43.8465 65.9151 40.4046L65.1638 41.7783ZM78.561 54.9459L61.137 64.3059L61.8779 65.6851L79.3019 56.3251L78.561 54.9459ZM62.1883 64.6091C58.0303 57.2832 51.9748 53.5566 44.0834 53.5566V55.1223C51.3601 55.1223 56.9206 58.4998 60.8266 65.3819L62.1883 64.6091ZM44.0834 53.5566C38.0378 53.5566 32.9849 55.5469 28.9859 59.5459L30.093 60.653C33.7739 56.9721 38.4171 55.1223 44.0834 55.1223V53.5566ZM28.9859 59.5459C24.968 63.5639 22.9966 69.0125 22.9966 75.7955H24.5623C24.5623 69.3305 26.4309 64.3151 30.093 60.653L28.9859 59.5459ZM22.9966 75.7955C22.9966 82.5785 24.968 88.0271 28.9859 92.045L30.093 90.9379C26.4309 87.2759 24.5623 82.2605 24.5623 75.7955H22.9966ZM28.9859 92.045C32.9849 96.0441 38.0378 98.0343 44.0834 98.0343V96.4687C38.4171 96.4687 33.7739 94.6189 30.093 90.9379L28.9859 92.045ZM44.0834 98.0343C48.0486 98.0343 51.5657 97.1158 54.6079 95.2553C57.6478 93.3962 60.1713 90.6224 62.1922 86.9749L60.8227 86.2161C58.9076 89.6725 56.5591 92.2268 53.791 93.9196C51.0252 95.6111 47.7982 96.4687 44.0834 96.4687V98.0343ZM61.1326 87.2827L78.5566 96.7867L79.3063 95.4122L61.8823 85.9082L61.1326 87.2827ZM78.2184 95.7764C75.5064 101.762 71.1615 106.439 65.1556 109.817L65.9232 111.182C72.2054 107.648 76.7885 102.725 79.6445 96.4226L78.2184 95.7764ZM65.151 109.82C59.2402 113.197 52.2747 114.901 44.2274 114.901V116.466C52.5001 116.466 59.7427 114.714 65.9278 111.179L65.151 109.82ZM150.762 44.5475L150.239 45.1307L150.244 45.135L150.762 44.5475ZM160.41 114.531V115.314H161.192V114.531H160.41ZM139.386 114.531H138.603V115.314H139.386V114.531ZM139.386 104.883H140.168V102.002L138.71 104.487L139.386 104.883ZM100.218 112.66L99.8865 113.369L99.8924 113.372L100.218 112.66ZM90.2816 104.307L90.9383 103.881L90.2816 104.307ZM94.8896 75.2195L94.4181 74.5945L94.4128 74.5986L94.8896 75.2195ZM137.946 69.0275V69.8103H138.728V69.0275H137.946ZM133.482 57.7955L132.957 58.3765L132.967 58.3858L133.482 57.7955ZM107.85 55.7795L108.086 56.5258L108.097 56.5222L107.85 55.7795ZM97.7696 60.9635L97.0732 61.3212L97.509 62.1693L98.256 61.5768L97.7696 60.9635ZM89.7056 45.2675L89.2547 44.6275L88.6981 45.0197L89.0092 45.6252L89.7056 45.2675ZM104.826 38.3555L104.619 37.6005L104.615 37.6014L104.826 38.3555ZM131.61 97.9715L132.003 98.6485L132.011 98.6438L132.019 98.6389L131.61 97.9715ZM137.946 90.0515L138.682 90.3174L138.728 90.1885V90.0515H137.946ZM137.946 82.1315H138.728V81.3486H137.946V82.1315ZM112.026 98.1155L111.543 98.732L111.558 98.7435L111.573 98.7543L112.026 98.1155ZM123.114 36.6903C134.996 36.6903 143.998 39.5419 150.239 45.1307L151.284 43.9643C144.661 38.0331 135.231 35.1247 123.114 35.1247V36.6903ZM150.244 45.135C156.455 50.604 159.627 58.947 159.627 70.3235H161.192C161.192 58.66 157.932 49.819 151.279 43.96L150.244 45.135ZM159.627 70.3235V114.531H161.192V70.3235H159.627ZM160.41 113.749H139.386V115.314H160.41V113.749ZM140.168 114.531V104.883H138.603V114.531H140.168ZM138.71 104.487C134.678 111.361 127.13 114.901 115.77 114.901V116.466C127.449 116.466 135.645 112.806 140.061 105.28L138.71 104.487ZM115.77 114.901C109.905 114.901 104.836 113.907 100.543 111.947L99.8924 113.372C104.431 115.444 109.73 116.466 115.77 116.466V114.901ZM100.549 111.95C96.3444 109.988 93.1527 107.295 90.9383 103.881L89.6248 104.734C92.0184 108.424 95.4507 111.299 99.8865 113.369L100.549 111.95ZM90.9383 103.881C88.7221 100.465 87.6084 96.5827 87.6084 92.2115H86.0427C86.0427 96.8643 87.233 101.046 89.6248 104.734L90.9383 103.881ZM87.6084 92.2115C87.6084 85.2372 90.1968 79.8099 95.3663 75.8404L94.4128 74.5986C88.8303 78.8851 86.0427 84.7858 86.0427 92.2115H87.6084ZM95.361 75.8445C100.634 71.8667 108.83 69.8103 120.09 69.8103V68.2447C108.693 68.2447 100.089 70.3163 94.4181 74.5945L95.361 75.8445ZM120.09 69.8103H137.946V68.2447H120.09V69.8103ZM138.728 69.0275C138.728 63.9641 137.182 59.9806 133.996 57.2052L132.967 58.3858C135.733 60.7943 137.163 64.2989 137.163 69.0275H138.728ZM134.006 57.2145C130.83 54.346 126.144 52.9807 120.09 52.9807V54.5463C125.939 54.5463 130.181 55.869 132.957 58.3764L134.006 57.2145ZM120.09 52.9807C115.875 52.9807 111.711 53.667 107.602 55.0368L108.097 56.5222C112.052 55.204 116.048 54.5463 120.09 54.5463V52.9807ZM107.613 55.0333C103.601 56.3054 100.153 58.0743 97.2831 60.3501L98.256 61.5768C100.954 59.4367 104.226 57.7496 108.086 56.5257L107.613 55.0333ZM98.4659 60.6058L90.4019 44.9097L89.0092 45.6252L97.0732 61.3212L98.4659 60.6058ZM90.1564 45.9074C94.2957 42.9912 99.251 40.7217 105.036 39.1096L104.615 37.6014C98.6881 39.2533 93.5634 41.5918 89.2547 44.6275L90.1564 45.9074ZM105.033 39.1105C110.916 37.4972 116.943 36.6903 123.114 36.6903V35.1247C116.804 35.1247 110.639 35.9498 104.619 37.6005L105.033 39.1105ZM121.386 101.346C125.347 101.346 128.894 100.454 132.003 98.6485L131.216 97.2945C128.373 98.9454 125.104 99.7807 121.386 99.7807V101.346ZM132.019 98.6389C135.155 96.717 137.377 93.931 138.682 90.3174L137.209 89.7856C136.018 93.084 134.017 95.578 131.2 97.304L132.019 98.6389ZM138.728 90.0515V82.1315H137.163V90.0515H138.728ZM137.946 81.3486H122.538V82.9143H137.946V81.3486ZM122.538 81.3486C117.869 81.3486 114.231 82.1101 111.74 83.745C109.191 85.4176 107.931 87.9461 107.931 91.2035H109.496C109.496 88.4129 110.54 86.4054 112.599 85.054C114.716 83.6649 117.99 82.9143 122.538 82.9143V81.3486ZM107.931 91.2035C107.931 94.3166 109.14 96.851 111.543 98.732L112.508 97.499C110.496 95.924 109.496 93.8504 109.496 91.2035H107.931ZM111.573 98.7543C114.052 100.51 117.349 101.346 121.386 101.346V99.7807C117.55 99.7807 114.607 98.9846 112.478 97.4767L111.573 98.7543ZM180.741 7.68349V6.90065H179.958V7.68349H180.741ZM203.205 7.68349H203.987V6.90065H203.205V7.68349ZM203.205 114.531V115.314H203.987V114.531H203.205ZM180.741 114.531H179.958V115.314H180.741V114.531ZM180.741 8.46633H203.205V6.90065H180.741V8.46633ZM202.422 7.68349V114.531H203.987V7.68349H202.422ZM203.205 113.749H180.741V115.314H203.205V113.749ZM181.523 114.531V7.68349H179.958V114.531H181.523ZM299.509 82.1315V82.9143H300.234L300.29 82.1915L299.509 82.1315ZM240.901 82.1315V81.3486H239.927L240.137 82.2997L240.901 82.1315ZM248.389 93.5075L248.841 92.8684L248.389 93.5075ZM273.733 95.9555L274.008 96.6886L274.02 96.6839L273.733 95.9555ZM282.517 90.1955L283.093 89.6648L282.55 89.0763L281.974 89.632L282.517 90.1955ZM294.469 103.155L295.059 103.671L295.521 103.141L295.045 102.625L294.469 103.155ZM239.317 110.643L238.959 111.34L238.967 111.344L239.317 110.643ZM223.765 96.3875L223.095 96.7918L223.765 96.3875ZM223.621 55.3475L222.948 54.9478L222.946 54.951L223.621 55.3475ZM238.453 41.0915L238.824 41.7808L238.828 41.7787L238.453 41.0915ZM280.213 40.8035L280.58 40.1122L280.213 40.8035ZM294.613 54.9155L293.931 55.2993L293.934 55.3056L293.938 55.3119L294.613 54.9155ZM246.949 57.2195L246.448 56.6181L246.949 57.2195ZM240.613 69.0275L239.839 68.9085L239.701 69.8103H240.613V69.0275ZM278.773 69.0275V69.8103H279.688L279.546 68.9062L278.773 69.0275ZM272.437 57.3635L271.926 57.9568L271.936 57.9649L272.437 57.3635ZM299.158 76.0835C299.158 76.3318 299.019 78.2985 298.729 82.0714L300.29 82.1915C300.575 78.4765 300.724 76.4112 300.724 76.0835H299.158ZM299.509 81.3486H240.901V82.9143H299.509V81.3486ZM240.137 82.2997C241.233 87.286 243.838 91.2476 247.937 94.1466L248.841 92.8684C245.068 90.1993 242.681 86.577 241.666 81.9633L240.137 82.2997ZM247.937 94.1466C252.031 97.0427 257.095 98.4663 263.077 98.4663V96.9007C257.348 96.9007 252.619 95.5403 248.841 92.8684L247.937 94.1466ZM263.077 98.4663C267.182 98.4663 270.831 97.88 274.008 96.6885L273.458 95.2225C270.492 96.335 267.036 96.9007 263.077 96.9007V98.4663ZM274.02 96.6839C277.292 95.3948 280.306 93.4153 283.06 90.759L281.974 89.632C279.352 92.1597 276.51 94.0202 273.446 95.2271L274.02 96.6839ZM281.942 90.7262L293.894 103.686L295.045 102.625L283.093 89.6648L281.942 90.7262ZM293.879 102.64C286.77 110.779 276.355 114.901 262.501 114.901V116.466C276.679 116.466 287.576 112.236 295.059 103.671L293.879 102.64ZM262.501 114.901C253.867 114.901 246.262 113.241 239.667 109.943L238.967 111.344C245.812 114.766 253.663 116.466 262.501 116.466V114.901ZM239.675 109.947C233.075 106.553 228.003 101.898 224.435 95.9832L223.095 96.7918C226.823 102.973 232.119 107.822 238.959 111.34L239.675 109.947ZM224.435 95.9832C220.867 90.0678 219.076 83.3459 219.076 75.7955H217.51C217.51 83.6051 219.367 90.6112 223.095 96.7918L224.435 95.9832ZM219.076 75.7955C219.076 68.3392 220.82 61.662 224.296 55.7439L222.946 54.951C219.318 61.129 217.51 68.0838 217.51 75.7955H219.076ZM224.294 55.7472C227.87 49.7242 232.71 45.0728 238.824 41.7808L238.082 40.4022C231.716 43.8302 226.668 48.6827 222.948 54.9478L224.294 55.7472ZM238.828 41.7787C245.04 38.3903 251.966 36.6903 259.621 36.6903V35.1247C251.725 35.1247 244.538 36.8807 238.078 40.4042L238.828 41.7787ZM259.621 36.6903C267.089 36.6903 273.825 38.2962 279.846 41.4948L280.58 40.1122C274.313 36.7828 267.321 35.1247 259.621 35.1247V36.6903ZM279.846 41.4948C285.856 44.6876 290.547 49.284 293.931 55.2993L295.295 54.5317C291.767 48.259 286.858 43.4474 280.58 40.1122L279.846 41.4948ZM293.938 55.3119C297.409 61.2227 299.158 68.1377 299.158 76.0835H300.724C300.724 67.9013 298.921 60.7043 295.288 54.519L293.938 55.3119ZM259.765 52.1166C254.519 52.1166 250.063 53.6055 246.448 56.6181L247.45 57.8209C250.747 55.0734 254.835 53.6823 259.765 53.6823V52.1166ZM246.448 56.6181C242.827 59.6355 240.633 63.7526 239.839 68.9085L241.387 69.1465C242.13 64.3184 244.159 60.5635 247.45 57.8209L246.448 56.6181ZM240.613 69.8103H278.773V68.2447H240.613V69.8103ZM279.546 68.9062C278.752 63.843 276.555 59.7765 272.938 56.7621L271.936 57.9649C275.231 60.7105 277.258 64.42 278 69.1488L279.546 68.9062ZM272.948 56.7703C269.336 53.66 264.925 52.1166 259.765 52.1166V53.6823C264.589 53.6823 268.626 55.1149 271.926 57.9567L272.948 56.7703ZM385.169 44.5475L384.62 45.1056L384.624 45.11L385.169 44.5475ZM394.097 114.531V115.314H394.88V114.531H394.097ZM371.633 114.531H370.85V115.314H371.633V114.531ZM367.601 59.9555L367.012 60.4711L367.02 60.4802L367.601 59.9555ZM342.401 60.6755L342.962 61.2212L342.97 61.2135L342.401 60.6755ZM337.361 114.531V115.314H338.144V114.531H337.361ZM314.897 114.531H314.114V115.314H314.897V114.531ZM314.897 37.0595V36.2766H314.114V37.0595H314.897ZM336.353 37.0595H337.136V36.2766H336.353V37.0595ZM336.353 46.1315H335.57V48.152L336.931 46.6589L336.353 46.1315ZM347.441 38.6435L347.726 39.3725L347.733 39.3698L347.74 39.367L347.441 38.6435ZM361.985 36.6903C371.417 36.6903 378.935 39.5138 384.62 45.1056L385.718 43.9894C379.691 38.0612 371.753 35.1247 361.985 35.1247V36.6903ZM384.624 45.11C390.375 50.6748 393.314 58.9833 393.314 70.1795H394.88C394.88 58.7196 391.867 49.9402 385.713 43.9849L384.624 45.11ZM393.314 70.1795V114.531H394.88V70.1795H393.314ZM394.097 113.749H371.633V115.314H394.097V113.749ZM372.416 114.531V73.6355H370.85V114.531H372.416ZM372.416 73.6355C372.416 67.3972 371.054 62.6105 368.182 59.4308L367.02 60.4802C369.524 63.2525 370.85 67.5858 370.85 73.6355H372.416ZM368.19 59.44C365.318 56.1576 361.19 54.5647 355.937 54.5647V56.1303C360.859 56.1303 364.508 57.6094 367.012 60.471L368.19 59.44ZM355.937 54.5647C350.095 54.5647 345.364 56.4041 341.832 60.1375L342.97 61.2135C346.158 57.8429 350.451 56.1303 355.937 56.1303V54.5647ZM341.84 60.1298C338.286 63.785 336.578 69.2003 336.578 76.2275H338.144C338.144 69.4307 339.796 64.4779 342.962 61.2212L341.84 60.1298ZM336.578 76.2275V114.531H338.144V76.2275H336.578ZM337.361 113.749H314.897V115.314H337.361V113.749ZM315.68 114.531V37.0595H314.114V114.531H315.68ZM314.897 37.8423H336.353V36.2766H314.897V37.8423ZM335.57 37.0595V46.1315H337.136V37.0595H335.57ZM336.931 46.6589C339.82 43.4902 343.414 41.06 347.726 39.3725L347.156 37.9145C342.636 39.683 338.837 42.2448 335.774 45.604L336.931 46.6589ZM347.74 39.367C352.051 37.5861 356.797 36.6903 361.985 36.6903V35.1247C356.613 35.1247 351.662 36.0529 347.142 37.9199L347.74 39.367ZM494.215 7.68349H494.998V6.90065H494.215V7.68349ZM494.215 114.531V115.314H494.998V114.531H494.215ZM472.759 114.531H471.976V115.314H472.759V114.531ZM472.759 105.603H473.542V103.432L472.156 105.104L472.759 105.603ZM428.695 110.787L428.314 111.471L428.319 111.474L428.695 110.787ZM414.871 96.8195L415.555 96.4393L414.871 96.8195ZM414.871 54.7715L415.555 55.1517L414.871 54.7715ZM428.695 40.8035L428.319 40.1171L428.314 40.1197L428.695 40.8035ZM471.751 45.2675L471.167 45.7887L472.534 47.3206V45.2675H471.751ZM471.751 7.68349V6.90065H470.968V7.68349H471.751ZM466.567 91.4915L467.128 92.038L467.134 92.031L466.567 91.4915ZM466.567 60.2435L466 60.7831L466.007 60.79L466.567 60.2435ZM438.199 60.2435L438.76 60.79L438.766 60.783L438.199 60.2435ZM438.199 91.4915L437.632 92.0311L437.639 92.038L438.199 91.4915ZM493.432 7.68349V114.531H494.998V7.68349H493.432ZM494.215 113.749H472.759V115.314H494.215V113.749ZM473.542 114.531V105.603H471.976V114.531H473.542ZM472.156 105.104C466.768 111.607 458.948 114.901 448.567 114.901V116.466C459.306 116.466 467.614 113.04 473.362 106.103L472.156 105.104ZM448.567 114.901C441.393 114.901 434.9 113.297 429.071 110.101L428.319 111.474C434.395 114.806 441.15 116.466 448.567 116.466V114.901ZM429.076 110.104C423.352 106.913 418.847 102.364 415.555 96.4393L414.187 97.1997C417.615 103.371 422.326 108.134 428.314 111.471L429.076 110.104ZM415.555 96.4393C412.269 90.5242 410.614 83.6508 410.614 75.7955H409.048C409.048 83.8761 410.753 91.0188 414.187 97.1997L415.555 96.4393ZM410.614 75.7955C410.614 67.9401 412.269 61.0668 415.555 55.1517L414.187 54.3913C410.753 60.5722 409.048 67.7148 409.048 75.7955H410.614ZM415.555 55.1517C418.847 49.2269 423.352 44.6779 429.076 41.4873L428.314 40.1197C422.326 43.457 417.615 48.2201 414.187 54.3913L415.555 55.1517ZM429.071 41.4899C434.9 38.2939 441.393 36.6903 448.567 36.6903V35.1247C441.15 35.1247 434.395 36.7851 428.319 40.1171L429.071 41.4899ZM448.567 36.6903C458.277 36.6903 465.775 39.7457 471.167 45.7887L472.335 44.7463C466.591 38.3092 458.634 35.1247 448.567 35.1247V36.6903ZM472.534 45.2675V7.68349H470.968V45.2675H472.534ZM471.751 8.46633H494.215V6.90065H471.751V8.46633ZM452.455 98.0343C458.317 98.0343 463.227 96.0383 467.128 92.038L466.007 90.945C462.419 94.6247 457.921 96.4687 452.455 96.4687V98.0343ZM467.134 92.031C471.044 87.9211 472.966 82.4813 472.966 75.7955H471.4C471.4 82.1657 469.578 87.1899 466 90.952L467.134 92.031ZM472.966 75.7955C472.966 69.1104 471.044 63.7137 467.128 59.697L466.007 60.79C469.578 64.4532 471.4 69.4246 471.4 75.7955H472.966ZM467.134 59.7039C463.236 55.6053 458.323 53.5566 452.455 53.5566V55.1223C457.915 55.1223 462.411 57.0097 466 60.783L467.134 59.7039ZM452.455 53.5566C446.495 53.5566 441.533 55.6024 437.632 59.7039L438.766 60.783C442.353 57.0126 446.895 55.1223 452.455 55.1223V53.5566ZM437.639 59.697C433.722 63.7137 431.8 69.1104 431.8 75.7955H433.366C433.366 69.4246 435.188 64.4532 438.76 60.79L437.639 59.697ZM431.8 75.7955C431.8 82.4813 433.722 87.9211 437.632 92.031L438.766 90.952C435.188 87.1899 433.366 82.1656 433.366 75.7955H431.8ZM437.639 92.038C441.542 96.0411 446.501 98.0343 452.455 98.0343V96.4687C446.889 96.4687 442.345 94.6219 438.76 90.945L437.639 92.038ZM573.902 44.5475L573.38 45.1307L573.385 45.135L573.902 44.5475ZM583.55 114.531V115.314H584.333V114.531H583.55ZM562.526 114.531H561.743V115.314H562.526V114.531ZM562.526 104.883H563.309V102.002L561.851 104.487L562.526 104.883ZM523.358 112.66L523.027 113.369L523.033 113.372L523.358 112.66ZM513.422 104.307L514.079 103.881L513.422 104.307ZM518.03 75.2195L517.559 74.5945L517.553 74.5986L518.03 75.2195ZM561.086 69.0275V69.8103H561.869V69.0275H561.086ZM556.622 57.7955L556.097 58.3765L556.108 58.3858L556.622 57.7955ZM530.99 55.7795L531.227 56.5258L531.238 56.5222L530.99 55.7795ZM520.91 60.9635L520.214 61.3212L520.65 62.1693L521.397 61.5768L520.91 60.9635ZM512.846 45.2675L512.395 44.6275L511.839 45.0197L512.15 45.6252L512.846 45.2675ZM527.966 38.3555L527.759 37.6005L527.756 37.6014L527.966 38.3555ZM554.75 97.9715L555.143 98.6485L555.151 98.6438L555.159 98.6389L554.75 97.9715ZM561.086 90.0515L561.823 90.3174L561.869 90.1885V90.0515H561.086ZM561.086 82.1315H561.869V81.3486H561.086V82.1315ZM535.166 98.1155L534.684 98.732L534.698 98.7435L534.714 98.7543L535.166 98.1155ZM554.894 6.38749V5.60465H554.555L554.323 5.85207L554.894 6.38749ZM579.086 6.38749L579.574 7.0001L581.328 5.60465H579.086V6.38749ZM553.022 27.1235V27.9063H553.296L553.51 27.7361L553.022 27.1235ZM535.454 27.1235L534.883 26.5881L533.647 27.9063H535.454V27.1235ZM546.254 36.6903C558.137 36.6903 567.139 39.5419 573.38 45.1307L574.424 43.9643C567.801 38.0331 558.372 35.1247 546.254 35.1247V36.6903ZM573.385 45.135C579.595 50.604 582.767 58.947 582.767 70.3235H584.333C584.333 58.66 581.073 49.819 574.42 43.96L573.385 45.135ZM582.767 70.3235V114.531H584.333V70.3235H582.767ZM583.55 113.749H562.526V115.314H583.55V113.749ZM563.309 114.531V104.883H561.743V114.531H563.309ZM561.851 104.487C557.819 111.361 550.271 114.901 538.91 114.901V116.466C550.59 116.466 558.786 112.806 563.201 105.28L561.851 104.487ZM538.91 114.901C533.046 114.901 527.977 113.907 523.683 111.947L523.033 113.372C527.571 115.444 532.871 116.466 538.91 116.466V114.901ZM523.689 111.95C519.485 109.988 516.293 107.295 514.079 103.881L512.765 104.734C515.159 108.424 518.591 111.299 523.027 113.369L523.689 111.95ZM514.079 103.881C511.863 100.465 510.749 96.5827 510.749 92.2115H509.183C509.183 96.8643 510.374 101.046 512.765 104.734L514.079 103.881ZM510.749 92.2115C510.749 85.2372 513.337 79.8099 518.507 75.8404L517.553 74.5986C511.971 78.8851 509.183 84.7858 509.183 92.2115H510.749ZM518.502 75.8445C523.775 71.8667 531.971 69.8103 543.23 69.8103V68.2447C531.834 68.2447 523.23 70.3163 517.559 74.5945L518.502 75.8445ZM543.23 69.8103H561.086V68.2447H543.23V69.8103ZM561.869 69.0275C561.869 63.9641 560.323 59.9806 557.136 57.2052L556.108 58.3858C558.873 60.7943 560.303 64.2989 560.303 69.0275H561.869ZM557.147 57.2145C553.971 54.346 549.284 52.9807 543.23 52.9807V54.5463C549.08 54.5463 553.321 55.869 556.097 58.3764L557.147 57.2145ZM543.23 52.9807C539.016 52.9807 534.852 53.667 530.743 55.0368L531.238 56.5222C535.192 55.204 539.189 54.5463 543.23 54.5463V52.9807ZM530.754 55.0333C526.741 56.3054 523.293 58.0743 520.424 60.3501L521.397 61.5768C524.095 59.4367 527.367 57.7496 531.227 56.5257L530.754 55.0333ZM521.607 60.6058L513.542 44.9097L512.15 45.6252L520.214 61.3212L521.607 60.6058ZM513.297 45.9074C517.436 42.9912 522.392 40.7217 528.176 39.1096L527.756 37.6014C521.829 39.2533 516.704 41.5918 512.395 44.6275L513.297 45.9074ZM528.173 39.1105C534.057 37.4972 540.083 36.6903 546.254 36.6903V35.1247C539.945 35.1247 533.779 35.9498 527.759 37.6005L528.173 39.1105ZM544.526 101.346C548.488 101.346 552.034 100.454 555.143 98.6485L554.357 97.2945C551.514 98.9454 548.245 99.7807 544.526 99.7807V101.346ZM555.159 98.6389C558.295 96.717 560.518 93.931 561.823 90.3174L560.35 89.7856C559.159 93.084 557.157 95.578 554.341 97.304L555.159 98.6389ZM561.869 90.0515V82.1315H560.303V90.0515H561.869ZM561.086 81.3486H545.678V82.9143H561.086V81.3486ZM545.678 81.3486C541.009 81.3486 537.372 82.1101 534.881 83.745C532.332 85.4176 531.071 87.9461 531.071 91.2035H532.637C532.637 88.4129 533.68 86.4054 535.74 85.054C537.856 83.6649 541.131 82.9143 545.678 82.9143V81.3486ZM531.071 91.2035C531.071 94.3166 532.28 96.851 534.684 98.732L535.649 97.499C533.636 95.924 532.637 93.8504 532.637 91.2035H531.071ZM534.714 98.7543C537.193 100.51 540.49 101.346 544.526 101.346V99.7807C540.69 99.7807 537.747 98.9846 535.619 97.4767L534.714 98.7543ZM554.894 7.17033H579.086V5.60465H554.894V7.17033ZM578.599 5.77487L552.535 26.5109L553.51 27.7361L579.574 7.0001L578.599 5.77487ZM553.022 26.3406H535.454V27.9063H553.022V26.3406ZM536.025 27.6589L555.465 6.9229L554.323 5.85207L534.883 26.5881L536.025 27.6589ZM625.337 47.2835H624.554V49.7162L625.973 47.7401L625.337 47.2835ZM636.137 38.7875L635.836 38.0648L635.831 38.0672L636.137 38.7875ZM651.977 35.9075H652.76V35.1247H651.977V35.9075ZM651.977 56.6435L651.917 57.424L652.76 57.4889V56.6435H651.977ZM631.817 61.8275L632.363 62.3884L632.371 62.381L631.817 61.8275ZM626.345 114.531V115.314H627.128V114.531H626.345ZM603.881 114.531H603.098V115.314H603.881V114.531ZM603.881 37.0595V36.2766H603.098V37.0595H603.881ZM625.337 37.0595H626.12V36.2766H625.337V37.0595ZM625.973 47.7401C628.572 44.12 632.055 41.3754 636.444 39.5078L635.831 38.0672C631.196 40.0395 627.478 42.959 624.701 46.8269L625.973 47.7401ZM636.438 39.5101C640.934 37.6367 646.109 36.6903 651.977 36.6903V35.1247C645.941 35.1247 640.556 36.0983 635.836 38.0649L636.438 39.5101ZM651.194 35.9075V56.6435H652.76V35.9075H651.194ZM652.037 55.863C649.545 55.6713 647.836 55.5727 646.937 55.5727V57.1383C647.766 57.1383 649.417 57.2317 651.917 57.424L652.037 55.863ZM646.937 55.5727C640.352 55.5727 635.093 57.4448 631.264 61.2739L632.371 62.381C635.838 58.9142 640.659 57.1383 646.937 57.1383V55.5727ZM631.271 61.2666C627.418 65.0182 625.562 70.6331 625.562 77.9555H627.128C627.128 70.8779 628.92 65.7408 632.363 62.3884L631.271 61.2666ZM625.562 77.9555V114.531H627.128V77.9555H625.562ZM626.345 113.749H603.881V115.314H626.345V113.749ZM604.664 114.531V37.0595H603.098V114.531H604.664ZM603.881 37.8423H625.337V36.2766H603.881V37.8423ZM624.554 37.0595V47.2835H626.12V37.0595H624.554ZM665.334 37.0595V36.2766H664.551V37.0595H665.334ZM687.798 37.0595H688.581V36.2766H687.798V37.0595ZM687.798 114.531V115.314H688.581V114.531H687.798ZM665.334 114.531H664.551V115.314H665.334V114.531ZM666.486 22.6595L665.954 23.2339L666.486 22.6595ZM666.486 4.80349L667.018 5.37791L666.486 4.80349ZM686.646 4.65949L686.126 5.24459L686.646 4.65949ZM686.646 22.6595L687.178 23.2339L687.184 23.2287L687.189 23.2234L686.646 22.6595ZM665.334 37.8423H687.798V36.2766H665.334V37.8423ZM687.015 37.0595V114.531H688.581V37.0595H687.015ZM687.798 113.749H665.334V115.314H687.798V113.749ZM666.117 114.531V37.0595H664.551V114.531H666.117ZM676.566 25.4766C672.6 25.4766 669.441 24.3288 667.018 22.0851L665.954 23.2339C668.715 25.7902 672.277 27.0423 676.566 27.0423V25.4766ZM667.018 22.0851C664.587 19.8342 663.381 17.0668 663.381 13.7315H661.815C661.815 17.5002 663.201 20.6848 665.954 23.2339L667.018 22.0851ZM663.381 13.7315C663.381 10.3962 664.587 7.62882 667.018 5.37791L665.954 4.22907C663.201 6.77816 661.815 9.96279 661.815 13.7315H663.381ZM667.018 5.37791C669.441 3.13418 672.6 1.98633 676.566 1.98633V0.420645C672.277 0.420645 668.715 1.67279 665.954 4.22907L667.018 5.37791ZM676.566 1.98633C680.541 1.98633 683.704 3.0914 686.126 5.24459L687.166 4.07439C684.405 1.61958 680.848 0.420645 676.566 0.420645V1.98633ZM686.126 5.24459C688.552 7.40063 689.751 10.068 689.751 13.2995H691.317C691.317 9.61899 689.925 6.52636 687.166 4.07439L686.126 5.24459ZM689.751 13.2995C689.751 16.8404 688.535 19.7537 686.103 22.0956L687.189 23.2234C689.941 20.5732 691.317 17.2466 691.317 13.2995H689.751ZM686.114 22.0851C683.691 24.3288 680.533 25.4766 676.566 25.4766V27.0423C680.856 27.0423 684.417 25.7902 687.178 23.2339L686.114 22.0851ZM723.479 110.643L723.108 111.333L723.121 111.34L723.479 110.643ZM708.359 96.3875L707.688 96.7918L708.359 96.3875ZM708.359 55.2035L707.688 54.7992L708.359 55.2035ZM723.479 41.0915L723.841 41.7854L723.845 41.7834L723.479 41.0915ZM767.399 41.0915L767.028 41.7811L767.036 41.7854L767.399 41.0915ZM782.519 55.2035L783.189 54.7992L782.519 55.2035ZM782.519 96.3875L783.189 96.7918L782.519 96.3875ZM767.399 110.643L767.761 111.337L767.769 111.333L767.399 110.643ZM759.623 91.4915L759.056 90.952L759.055 90.9523L759.623 91.4915ZM759.623 60.2435L759.049 60.7756L759.055 60.7829L759.062 60.79L759.623 60.2435ZM731.255 60.2435L731.815 60.79L731.822 60.783L731.255 60.2435ZM731.255 91.4915L730.688 92.0311L730.694 92.038L731.255 91.4915ZM745.511 114.901C737.461 114.901 730.242 113.244 723.837 109.947L723.121 111.34C729.771 114.763 737.24 116.466 745.511 116.466V114.901ZM723.849 109.954C717.537 106.562 712.602 101.907 709.029 95.9832L707.688 96.7918C711.412 102.964 716.557 107.813 723.108 111.333L723.849 109.954ZM709.029 95.9832C705.461 90.0678 703.67 83.3459 703.67 75.7955H702.104C702.104 83.6051 703.961 90.6112 707.688 96.7918L709.029 95.9832ZM703.67 75.7955C703.67 68.2451 705.461 61.5232 709.029 55.6078L707.688 54.7992C703.961 60.9798 702.104 67.9859 702.104 75.7955H703.67ZM709.029 55.6078C712.601 49.6862 717.533 45.0808 723.841 41.7854L723.116 40.3976C716.561 43.8222 711.413 48.6247 707.688 54.7992L709.029 55.6078ZM723.845 41.7834C730.249 38.3932 737.465 36.6903 745.511 36.6903V35.1247C737.237 35.1247 729.765 36.8778 723.113 40.3996L723.845 41.7834ZM745.511 36.6903C753.557 36.6903 760.723 38.3932 767.028 41.7811L767.769 40.4019C761.211 36.8778 753.785 35.1247 745.511 35.1247V36.6903ZM767.036 41.7854C773.345 45.0808 778.277 49.6862 781.848 55.6078L783.189 54.7992C779.465 48.6247 774.317 43.8222 767.761 40.3976L767.036 41.7854ZM781.848 55.6078C785.417 61.5232 787.208 68.2451 787.208 75.7955H788.774C788.774 67.9859 786.917 60.9798 783.189 54.7992L781.848 55.6078ZM787.208 75.7955C787.208 83.3459 785.417 90.0678 781.848 95.9832L783.189 96.7918C786.917 90.6112 788.774 83.6051 788.774 75.7955H787.208ZM781.848 95.9832C778.276 101.907 773.341 106.562 767.028 109.954L767.769 111.333C774.321 107.813 779.466 102.964 783.189 96.7918L781.848 95.9832ZM767.036 109.95C760.729 113.244 753.56 114.901 745.511 114.901V116.466C753.781 116.466 761.204 114.763 767.761 111.337L767.036 109.95ZM745.511 98.0343C751.465 98.0343 756.381 96.0408 760.19 92.0307L759.055 90.9523C755.569 94.6222 751.077 96.4687 745.511 96.4687V98.0343ZM760.19 92.031C764.099 87.9211 766.022 82.4813 766.022 75.7955H764.456C764.456 82.1656 762.634 87.1899 759.056 90.952L760.19 92.031ZM766.022 75.7955C766.022 69.1104 764.1 63.7137 760.183 59.697L759.062 60.79C762.634 64.4532 764.456 69.4246 764.456 75.7955H766.022ZM760.197 59.7113C756.389 55.6028 751.471 53.5566 745.511 53.5566V55.1223C751.071 55.1223 755.561 57.0122 759.049 60.7756L760.197 59.7113ZM745.511 53.5566C739.551 53.5566 734.589 55.6024 730.688 59.7039L731.822 60.783C735.409 57.0126 739.951 55.1223 745.511 55.1223V53.5566ZM730.694 59.697C726.778 63.7137 724.856 69.1104 724.856 75.7955H726.422C726.422 69.4246 728.244 64.4532 731.815 60.79L730.694 59.697ZM724.856 75.7955C724.856 82.4813 726.778 87.9211 730.688 92.031L731.822 90.952C728.244 87.1899 726.422 82.1656 726.422 75.7955H724.856ZM730.694 92.038C734.597 96.0411 739.557 98.0343 745.511 98.0343V96.4687C739.945 96.4687 735.4 94.6219 731.815 90.945L730.694 92.038Z" fill="#CACACA"/>
</svg>
