<svg width="234" height="62" viewBox="0 0 234 62" fill="none" xmlns="http://www.w3.org/2000/svg">
<path d="M7.14214 3.63699C8.98645 3.63699 10.4326 4.07343 11.4805 4.94631C12.5284 5.80533 13.0523 7.00381 13.0523 8.54174C13.0523 10.0658 12.5284 11.2643 11.4805 12.1372C10.4326 12.9962 8.98645 13.4257 7.14214 13.4257H2.95051V18.185H1.88165V3.63699H7.14214ZM7.14214 12.4697C8.70701 12.4697 9.90162 12.1302 10.726 11.4513C11.5503 10.7724 11.9625 9.80256 11.9625 8.54174C11.9625 7.28092 11.5503 6.31105 10.726 5.63214C9.90162 4.93938 8.70701 4.593 7.14214 4.593H2.95051V12.4697H7.14214Z" fill="white"/>
<path d="M26.8444 18.185L23.3444 13.3218C22.8274 13.3911 22.3524 13.4257 21.9193 13.4257H17.7276V18.185H16.6588V3.63699H21.9193C23.7636 3.63699 25.2097 4.07343 26.2576 4.94631C27.3055 5.80533 27.8294 7.00381 27.8294 8.54174C27.8294 9.69172 27.529 10.6616 26.9282 11.4513C26.3414 12.2272 25.4961 12.7745 24.3923 13.0932L28.06 18.185H26.8444ZM21.9193 12.4905C23.4841 12.4905 24.6787 12.151 25.5031 11.4721C26.3274 10.7794 26.7396 9.80256 26.7396 8.54174C26.7396 7.28092 26.3274 6.31105 25.5031 5.63214C24.6787 4.93938 23.4841 4.593 21.9193 4.593H17.7276V12.4905H21.9193Z" fill="white"/>
<path d="M41.8657 17.229V18.185H31.7429V3.63699H41.5513V4.593H32.8118V10.3291H40.6291V11.2643H32.8118V17.229H41.8657ZM38.8477 2.45237L36.668 0.644268L34.4884 2.45237H33.4405L36.0812 0H37.2549L39.8956 2.45237H38.8477Z" fill="white"/>
<path d="M59.637 18.185L59.6161 5.73606L53.4753 16.2522H52.9514L46.8106 5.77762V18.185H45.7627V3.63699H46.6639L53.2238 14.8805L59.7837 3.63699H60.664L60.6849 18.185H59.637Z" fill="white"/>
<path d="M65.7998 3.63699H66.8687V18.185H65.7998V3.63699Z" fill="white"/>
<path d="M78.2054 18.2889C76.7663 18.2889 75.4669 17.9702 74.3072 17.3329C73.1475 16.6817 72.2324 15.7949 71.5617 14.6727C70.905 13.5504 70.5767 12.2965 70.5767 10.911C70.5767 9.52546 70.905 8.27156 71.5617 7.14929C72.2324 6.02702 73.1475 5.14721 74.3072 4.50987C75.4669 3.85868 76.7663 3.53308 78.2054 3.53308C79.6445 3.53308 80.9439 3.85175 82.1036 4.48909C83.2633 5.12643 84.1715 6.00624 84.8282 7.12851C85.4988 8.25078 85.8342 9.5116 85.8342 10.911C85.8342 12.3104 85.4988 13.5712 84.8282 14.6935C84.1715 15.8157 83.2633 16.6955 82.1036 17.3329C80.9439 17.9702 79.6445 18.2889 78.2054 18.2889ZM78.2054 17.3121C79.435 17.3121 80.5457 17.035 81.5378 16.4808C82.5298 15.9266 83.3122 15.1645 83.8851 14.1947C84.4579 13.2109 84.7444 12.1164 84.7444 10.911C84.7444 9.70558 84.4579 8.61794 83.8851 7.64808C83.3122 6.66436 82.5298 5.89539 81.5378 5.34119C80.5457 4.78698 79.435 4.50987 78.2054 4.50987C76.9759 4.50987 75.8581 4.78698 74.8521 5.34119C73.8601 5.89539 73.0777 6.66436 72.5048 7.64808C71.932 8.61794 71.6455 9.70558 71.6455 10.911C71.6455 12.1164 71.932 13.2109 72.5048 14.1947C73.0777 15.1645 73.8601 15.9266 74.8521 16.4808C75.8581 17.035 76.9759 17.3121 78.2054 17.3121Z" fill="white"/>
<path d="M107.101 18.185L103.811 13.5088C105.718 12.6983 106.828 11.098 106.828 8.91583C106.828 5.65293 104.376 3.63699 100.457 3.63699H94.1069V18.185H97.5021V14.1323H100.457H100.625L103.454 18.185H107.101ZM103.391 8.91583C103.391 10.4953 102.343 11.4513 100.269 11.4513H97.5021V6.38033H100.269C102.343 6.38033 103.391 7.31555 103.391 8.91583Z" fill="white"/>
<path d="M112.893 15.4832V12.1164H119.704V9.49775H112.893V6.33876H120.605V3.63699H109.519V18.185H120.878V15.4832H112.893Z" fill="white"/>
<path d="M123.579 18.185H130.244C135.043 18.185 138.334 15.3169 138.334 10.911C138.334 6.50502 135.043 3.63699 130.244 3.63699H123.579V18.185ZM126.974 15.4209V6.40111H130.076C132.989 6.40111 134.897 8.12608 134.897 10.911C134.897 13.6959 132.989 15.4209 130.076 15.4209H126.974Z" fill="white"/>
<path d="M144.269 15.4832V12.1164H151.08V9.49775H144.269V6.33876H151.981V3.63699H140.894V18.185H152.254V15.4832H144.269Z" fill="white"/>
<path d="M159.775 18.4344C163.967 18.4344 166 16.3561 166 13.9245C166 8.58331 157.47 10.433 157.47 7.75199C157.47 6.83755 158.245 6.08937 160.257 6.08937C161.557 6.08937 162.961 6.46346 164.323 7.23242L165.371 4.67613C164.009 3.82404 162.123 3.3876 160.278 3.3876C156.108 3.3876 154.096 5.4451 154.096 7.91826C154.096 13.3218 162.626 11.4513 162.626 14.1739C162.626 15.0675 161.808 15.7326 159.796 15.7326C158.036 15.7326 156.192 15.1091 154.955 14.2154L153.802 16.751C155.102 17.7485 157.449 18.4344 159.775 18.4344Z" fill="white"/>
<path d="M3.37426 36.266V32.8992H10.1857V30.2806H3.37426V27.1216H11.0869V24.4198H0V38.9678H11.3593V36.266H3.37426Z" fill="white"/>
<path d="M27.0172 39.2172C29.574 39.2172 31.6908 38.3027 33.0741 36.6193L30.8944 34.6242C29.9094 35.7672 28.6728 36.3492 27.2058 36.3492C24.4603 36.3492 22.5112 34.4371 22.5112 31.6938C22.5112 28.9505 24.4603 27.0385 27.2058 27.0385C28.6728 27.0385 29.9094 27.6204 30.8944 28.7426L33.0741 26.7475C31.6908 25.0849 29.574 24.1704 27.0381 24.1704C22.4692 24.1704 19.074 27.3086 19.074 31.6938C19.074 36.079 22.4692 39.2172 27.0172 39.2172Z" fill="white"/>
<path d="M38.7411 36.266V32.8992H45.5525V30.2806H38.7411V27.1216H46.4537V24.4198H35.3668V38.9678H46.7262V36.266H38.7411Z" fill="white"/>
<path d="M59.5294 24.4198V33.2525L52.236 24.4198H49.4276V38.9678H52.7809V30.1351L60.0953 38.9678H62.8827V24.4198H59.5294Z" fill="white"/>
<path d="M69.3927 38.9678H72.7879V27.1631H77.4825V24.4198H64.6981V27.1631H69.3927V38.9678Z" fill="white"/>
<path d="M92.3034 38.9678L89.0129 34.2917C90.9201 33.4811 92.0309 31.8808 92.0309 29.6987C92.0309 26.4357 89.5788 24.4198 85.6596 24.4198H79.3093V38.9678H82.7045V34.9151H85.6596H85.8273L88.6567 38.9678H92.3034ZM88.5938 29.6987C88.5938 31.2781 87.5459 32.2342 85.471 32.2342H82.7045V27.1631H85.471C87.5459 27.1631 88.5938 28.0984 88.5938 29.6987Z" fill="white"/>
<path d="M105.682 38.9678H109.245L102.685 24.4198H99.3317L92.7928 38.9678H96.2718L97.5712 35.8504H104.383L105.682 38.9678ZM98.661 33.2941L100.987 27.7243L103.314 33.2941H98.661Z" fill="white"/>
<path d="M110.767 38.9678H114.162V24.4198H110.767V38.9678Z" fill="white"/>
<path d="M122.464 39.2172C126.656 39.2172 128.689 37.1389 128.689 34.7073C128.689 29.3661 120.159 31.2158 120.159 28.5348C120.159 27.6204 120.934 26.8722 122.946 26.8722C124.246 26.8722 125.65 27.2463 127.012 28.0152L128.06 25.459C126.698 24.6069 124.812 24.1704 122.967 24.1704C118.797 24.1704 116.785 26.2279 116.785 28.7011C116.785 34.1046 125.315 32.2342 125.315 34.9567C125.315 35.8504 124.497 36.5154 122.485 36.5154C120.725 36.5154 118.88 35.8919 117.644 34.9983L116.491 37.5338C117.791 38.5313 120.138 39.2172 122.464 39.2172Z" fill="white"/>
<path d="M136.944 38.9678H143.609C148.408 38.9678 151.699 36.0998 151.699 31.6938C151.699 27.2878 148.408 24.4198 143.609 24.4198H136.944V38.9678ZM140.339 36.2037V27.1839H143.441C146.354 27.1839 148.262 28.9089 148.262 31.6938C148.262 34.4787 146.354 36.2037 143.441 36.2037H140.339Z" fill="white"/>
<path d="M157.633 36.266V32.8992H164.445V30.2806H157.633V27.1216H165.346V24.4198H154.259V38.9678H165.618V36.266H157.633Z" fill="white"/>
<path d="M60.3276 45.2026V54.0353L53.0342 45.2026H50.2258V59.7506H53.5791V50.9179L60.8935 59.7506H63.6809V45.2026H60.3276Z" fill="white"/>
<path d="M70.5262 57.0488V53.682H77.3376V51.0634H70.5262V47.9044H78.2388V45.2026H67.152V59.7506H78.5113V57.0488H70.5262Z" fill="white"/>
<path d="M91.085 56.5085C90.2257 56.9657 89.3664 57.132 88.4443 57.132C85.6359 57.132 83.6868 55.1992 83.6868 52.4766C83.6868 49.7125 85.6359 47.8213 88.4862 47.8213C89.9742 47.8213 91.2108 48.3408 92.2796 49.4631L94.4593 47.468C93.0341 45.8261 90.8964 44.9532 88.3185 44.9532C83.6449 44.9532 80.2497 48.0914 80.2497 52.4766C80.2497 56.8618 83.6449 60 88.2557 60C90.3515 60 92.573 59.3557 94.1868 58.1503V52.248H91.085V56.5085Z" fill="white"/>
<path d="M102.538 44.018H105.095L108.889 41.0253H105.368L102.538 44.018ZM104.445 60C109.056 60 112.472 56.8202 112.472 52.4766C112.472 48.133 109.056 44.9532 104.445 44.9532C99.8137 44.9532 96.4185 48.1538 96.4185 52.4766C96.4185 56.7994 99.8137 60 104.445 60ZM104.445 57.132C101.826 57.132 99.8557 55.2407 99.8557 52.4766C99.8557 49.7125 101.826 47.8213 104.445 47.8213C107.065 47.8213 109.035 49.7125 109.035 52.4766C109.035 55.2407 107.065 57.132 104.445 57.132Z" fill="white"/>
<path d="M122.045 60C124.602 60 126.719 59.0856 128.102 57.4021L125.922 55.407C124.937 56.5501 123.701 57.132 122.234 57.132C119.488 57.132 117.539 55.22 117.539 52.4766C117.539 49.7333 119.488 47.8213 122.234 47.8213C123.701 47.8213 124.937 48.4032 125.922 49.5255L128.102 47.5303C126.719 45.8677 124.602 44.9532 122.066 44.9532C117.497 44.9532 114.102 48.0914 114.102 52.4766C114.102 56.8618 117.497 60 122.045 60Z" fill="white"/>
<path d="M130.395 59.7506H133.79V45.2026H130.395V59.7506Z" fill="white"/>
<path d="M144.376 60C148.987 60 152.403 56.8202 152.403 52.4766C152.403 48.133 148.987 44.9532 144.376 44.9532C139.745 44.9532 136.349 48.1538 136.349 52.4766C136.349 56.7994 139.745 60 144.376 60ZM144.376 57.132C141.757 57.132 139.787 55.2407 139.787 52.4766C139.787 49.7125 141.757 47.8213 144.376 47.8213C146.996 47.8213 148.966 49.7125 148.966 52.4766C148.966 55.2407 146.996 57.132 144.376 57.132Z" fill="white"/>
<path d="M159.775 60C163.967 60 166 57.9217 166 55.4901C166 50.1489 157.47 51.9986 157.47 49.3176C157.47 48.4032 158.245 47.655 160.257 47.655C161.557 47.655 162.961 48.0291 164.323 48.7981L165.371 46.2418C164.009 45.3897 162.123 44.9532 160.278 44.9532C156.108 44.9532 154.096 47.0107 154.096 49.4839C154.096 54.8874 162.626 53.017 162.626 55.7395C162.626 56.6332 161.808 57.2982 159.796 57.2982C158.036 57.2982 156.192 56.6748 154.955 55.7811L153.802 58.3166C155.102 59.3142 157.449 60 159.775 60Z" fill="white"/>
<path fill-rule="evenodd" clip-rule="evenodd" d="M172 0H234V18.9746C229.969 20.0819 226.132 20.485 224.008 20.531C220.386 20.4526 211.779 19.3351 205.728 15.4563C209.957 19.0684 216.565 26.8429 219.086 36.1399C216.701 36.9702 214.232 37.2464 212.999 37.2697C211.255 37.2368 207.041 36.698 204.084 34.8021C205.764 36.237 208.216 39.023 209.725 42.46C207.758 43.5524 205.189 43.8732 204.084 43.894C202.902 43.8717 200.047 43.5066 198.043 42.2221C199.889 43.7989 203.112 47.7839 202.753 52.1529C200.58 53.4255 198.528 54.9961 196.648 56.91C196.632 56.9216 196.627 56.9272 196.632 56.9265L196.648 56.91C197.186 56.5269 209.582 49.6374 234 51.5653V62H172V0ZM219.543 14.4346C219.543 16.9006 221.542 18.8996 224.008 18.8996C226.474 18.8996 228.473 16.9006 228.473 14.4346C228.473 11.9686 226.474 9.96958 224.008 9.96958C221.542 9.96958 219.543 11.9686 219.543 14.4346ZM210.55 33.6565C210.55 35.0092 211.646 36.1058 212.999 36.1058C214.352 36.1058 215.448 35.0092 215.448 33.6565C215.448 32.3037 214.352 31.2071 212.999 31.2071C211.646 31.2071 210.55 32.3037 210.55 33.6565ZM202.124 40.9716C202.124 42.0538 203.001 42.9311 204.084 42.9311C205.166 42.9311 206.043 42.0538 206.043 40.9716C206.043 39.8894 205.166 39.0121 204.084 39.0121C203.001 39.0121 202.124 39.8894 202.124 40.9716Z" fill="white"/>
<path d="M205.416 50.7659C207.244 49.9248 209.138 49.2663 211.072 48.7666C211.126 46.574 210.592 44.4605 209.763 42.5459C208.103 44.099 205.708 47.2253 205.416 50.7659Z" fill="white"/>
<path d="M214.932 47.9798C216.542 47.7341 218.168 47.5836 219.794 47.5152C220.355 44.0529 220.137 40.6491 219.403 37.4108C217.257 40.0411 215.089 43.8408 214.932 47.9798Z" fill="white"/>
<path d="M228.278 47.8436C230.231 48.0653 232.147 48.3774 234 48.7556V25.1019C229.954 31.3364 226.796 39.4273 228.278 47.8436Z" fill="white"/>
</svg>
