<svg width="301" height="36" viewBox="0 0 301 36" fill="none" xmlns="http://www.w3.org/2000/svg">
<path d="M205.51 16.28C206.665 15.3684 208.125 14.9188 209.868 14.9188C212.865 14.9188 214.364 16.6215 214.364 20.0269V25.0776H211.246V24.1851H211.105C210.368 24.8541 209.404 25.2167 208.409 25.1991C207.375 25.1991 206.524 24.9121 205.834 24.3277C205.165 23.7394 204.821 23.0497 204.821 22.2194C204.821 20.861 205.388 19.9083 206.341 19.4453C207.297 18.9584 208.226 18.7757 209.362 18.7757H211.246C211.246 17.9033 210.496 17.1744 209.3 17.1744C208.429 17.1744 207.516 17.5187 206.564 18.1874L205.51 16.28ZM211.23 21.0839V20.8409H209.543C208.51 20.8409 207.983 21.1853 207.983 21.8932C207.983 22.4805 208.429 22.8861 209.239 22.8861C210.313 22.888 211.23 22.1581 211.23 21.0839ZM209.726 11.6387H212.26L210.273 14.0502H208.429L209.726 11.6387Z" fill="#CD2228"/>
<path d="M222.678 15.1855L222.009 17.9825C221.664 17.7797 221.157 17.6783 220.529 17.6783C219.477 17.6783 218.583 18.4493 218.583 19.4824V25.0774H215.439V15.064H218.6V16.2396H218.702C219.209 15.4485 220.162 14.9215 221.073 14.9215C221.747 14.9186 222.274 15.0028 222.678 15.1855Z" fill="#CD2228"/>
<path d="M225.517 21.428C225.517 22.5022 226.348 23.0704 227.503 23.0704C228.556 23.0704 229.773 22.705 230.278 22.1138L231.777 23.5936C230.642 24.688 229.182 25.2351 227.419 25.2351C225.615 25.2351 224.318 24.8295 223.487 23.9992C222.676 23.1702 222.27 22.1566 222.271 20.9583V19.401C222.271 18.2464 222.717 17.2123 223.588 16.2998C224.46 15.3872 225.658 14.9185 227.138 14.9185C229.996 14.9185 231.659 16.2366 231.659 18.101C231.659 19.0576 231.276 19.8448 230.482 20.4723C229.712 21.1008 228.739 21.4289 227.584 21.4289L225.517 21.428ZM227.28 19.401C228.152 19.401 228.759 18.9351 228.759 18.145C228.759 17.4964 228.212 17.0497 227.381 17.0497C226.307 17.0497 225.455 17.9221 225.455 19.401H227.28Z" fill="#CD2228"/>
<path d="M232.266 16.2797C233.422 15.368 234.881 14.9185 236.624 14.9185C239.621 14.9185 241.12 16.6212 241.12 20.0266V25.0773H238.002V24.1848H237.861C237.124 24.8538 236.16 25.2164 235.165 25.1988C234.131 25.1988 233.28 24.9118 232.59 24.3273C231.921 23.739 231.577 23.0503 231.577 22.2229C231.577 20.8645 232.144 19.9118 233.097 19.4488C234.054 18.9619 234.983 18.7792 236.118 18.7792H238.002C238.002 17.9068 237.253 17.1779 236.057 17.1779C235.185 17.1779 234.273 17.5223 233.32 18.1909L232.266 16.2797ZM237.982 21.0836V20.8406H236.3C235.267 20.8406 234.74 21.185 234.74 21.8929C234.74 22.4802 235.185 22.8858 235.996 22.8858C237.07 22.8877 237.982 22.1578 237.982 21.0836V21.0836Z" fill="#CD2228"/>
<path d="M250.976 22.0767C250.469 23.922 248.908 25.2191 246.415 25.2191C244.98 25.2191 243.821 24.7934 242.908 23.9621C241.997 23.1108 241.551 22.0767 241.551 20.881V19.2797C241.542 18.6914 241.66 18.1082 241.898 17.5701C242.136 17.032 242.487 16.5517 242.928 16.1622C243.841 15.331 245.016 14.9053 246.415 14.9053C248.949 14.9053 250.55 16.2837 250.976 18.128L247.935 18.899C247.86 18.5377 247.661 18.214 247.372 17.9843C247.084 17.7546 246.724 17.6335 246.355 17.642C246.138 17.6405 245.923 17.6818 245.722 17.7635C245.521 17.8452 245.338 17.9657 245.183 18.1182C245.029 18.2706 244.906 18.452 244.822 18.652C244.737 18.8519 244.693 19.0665 244.692 19.2835V20.8647C244.692 21.7563 245.462 22.4861 246.355 22.4861C246.711 22.491 247.059 22.3756 247.342 22.1587C247.625 21.9418 247.827 21.636 247.915 21.2904L250.976 22.0767Z" fill="#CD2228"/>
<path d="M254.117 21.428C254.117 22.5022 254.949 23.0704 256.104 23.0704C257.156 23.0704 258.374 22.705 258.878 22.1138L260.378 23.5936C259.243 24.688 257.784 25.2351 256.02 25.2351C254.216 25.2351 252.919 24.8295 252.087 23.9992C251.277 23.1702 250.872 22.1566 250.872 20.9583V19.401C250.872 18.2464 251.317 17.2123 252.189 16.2998C253.06 15.3872 254.26 14.9185 255.74 14.9185C258.597 14.9185 260.259 16.2366 260.259 18.101C260.259 19.0576 259.877 19.8448 259.084 20.4723C258.319 21.1008 257.341 21.4289 256.185 21.4289L254.117 21.428ZM255.881 19.401C256.753 19.401 257.361 18.9351 257.361 18.145C257.361 17.4964 256.814 17.0497 255.983 17.0497C254.908 17.0497 254.057 17.9221 254.057 19.401H255.881Z" fill="#CD2228"/>
<path d="M270.476 25.0774H267.313V20.1309C267.324 19.6952 267.282 19.2598 267.19 18.8338C267.048 18.1642 266.623 17.6381 265.73 17.6381C264.774 17.6381 264.089 18.3077 264.089 19.2595V25.0774H260.928V15.0639H264.111V16.2395H264.192C264.658 15.4896 265.818 14.9214 267.009 14.9214C269.32 14.9214 270.476 16.2389 270.476 18.874V25.0774Z" fill="#CD2228"/>
<path d="M275.116 15.0638H277.143V17.1922H275.116V21.1247C275.116 22.0765 275.461 22.4639 276.433 22.4639H277.143V25.0773H276.292C273.15 25.0773 271.954 23.9418 271.954 21.1247V17.1922H270.537V15.0638H271.956V12.5098H275.118L275.116 15.0638Z" fill="#CD2228"/>
<path d="M284.907 15.1855L284.238 17.9825C283.893 17.7797 283.386 17.6783 282.758 17.6783C281.706 17.6783 280.812 18.4493 280.812 19.4824V25.0774H277.671V15.064H280.828V16.2396H280.929C281.436 15.4485 282.389 14.9215 283.301 14.9215C283.975 14.9186 284.504 15.0028 284.907 15.1855Z" fill="#CD2228"/>
<path d="M284.664 16.2797C285.819 15.368 287.278 14.9185 289.022 14.9185C292.023 14.9185 293.521 16.6212 293.517 20.0266V25.0773H290.4V24.1848H290.258C289.522 24.8535 288.559 25.2161 287.565 25.1988C286.531 25.1988 285.679 24.9118 284.991 24.3273C284.321 23.739 283.977 23.0503 283.977 22.2229C283.977 20.8645 284.544 19.9118 285.497 19.4488C286.453 18.9619 287.382 18.7792 288.517 18.7792H290.402C290.402 17.9068 289.652 17.1779 288.456 17.1779C287.585 17.1779 286.672 17.5223 285.719 18.1909L284.664 16.2797ZM290.38 21.0836V20.8406H288.697C287.664 20.8406 287.137 21.185 287.137 21.8929C287.137 22.4802 287.583 22.8858 288.394 22.8858C289.468 22.8877 290.38 22.1578 290.38 21.0836V21.0836Z" fill="#CD2228"/>
<path d="M298.934 22.442V25.0975H297.576C295.326 25.0975 294.211 23.8205 294.211 21.2865V10.7642H297.393V21.2664C297.393 22.0565 297.799 22.442 298.609 22.442H298.934Z" fill="#CD2228"/>
<path fill-rule="evenodd" clip-rule="evenodd" d="M155.507 0.925781H189.654V35.0729H155.507V0.925781ZM159.888 12.5624C161.557 11.2518 163.662 10.6054 166.177 10.6054C170.502 10.6054 172.665 13.0534 172.665 17.9493L172.665 25.2106H168.166V23.9275H167.962C166.899 24.8892 165.508 25.4106 164.072 25.3852C162.58 25.3852 161.351 24.9727 160.356 24.1324C159.39 23.2866 158.894 22.2964 158.894 21.1068C158.894 19.154 159.713 17.7842 161.088 17.1186C162.468 16.4186 163.809 16.1559 165.447 16.1559H168.166C168.166 14.9017 167.084 13.8538 165.359 13.8538C164.101 13.8538 162.784 14.3489 161.409 15.3102L159.888 12.5624ZM168.137 19.1196V19.4689C168.137 21.0133 166.821 22.0626 165.27 22.0599C164.101 22.0599 163.458 21.4768 163.458 20.6324C163.458 19.6147 164.218 19.1196 165.709 19.1196H168.137ZM179.685 25.4133C183.282 25.4133 185.535 23.5484 186.267 20.8956L181.85 19.7651C181.722 20.2619 181.431 20.7016 181.023 21.0135C180.615 21.3253 180.113 21.4911 179.598 21.4842C178.31 21.4842 177.199 20.4349 177.199 19.1531V16.8799C177.201 16.5679 177.264 16.2594 177.386 15.9719C177.507 15.6844 177.685 15.4236 177.908 15.2044C178.13 14.9853 178.394 14.812 178.684 14.6945C178.975 14.5771 179.285 14.5177 179.598 14.5199C180.13 14.5077 180.65 14.6818 181.067 15.012C181.484 15.3422 181.771 15.8075 181.879 16.327L186.267 15.2185C185.653 12.5671 183.342 10.5853 179.685 10.5853C177.667 10.5853 175.97 11.1973 174.654 12.3924C174.017 12.9524 173.51 13.6429 173.167 14.4165C172.824 15.1902 172.653 16.0286 172.666 16.8744L172.666 19.1765C172.666 20.8956 173.309 22.3822 174.625 23.6062C175.941 24.8013 177.614 25.4133 179.685 25.4133Z" fill="#CD2228"/>
<path d="M20.6377 2.92938C21.6535 2.92938 22.4499 3.16975 23.0271 3.6505C23.6042 4.12361 23.8928 4.78368 23.8928 5.63071C23.8928 6.47011 23.6042 7.13018 23.0271 7.61093C22.4499 8.08404 21.6535 8.3206 20.6377 8.3206H18.3291V10.9418H17.7404V2.92938H20.6377ZM20.6377 7.79407C21.4996 7.79407 22.1575 7.60711 22.6115 7.2332C23.0656 6.85929 23.2926 6.32512 23.2926 5.63071C23.2926 4.9363 23.0656 4.40214 22.6115 4.02823C22.1575 3.64668 21.4996 3.45591 20.6377 3.45591H18.3291V7.79407H20.6377Z" fill="black"/>
<path d="M31.4889 10.9418L29.5613 8.26337C29.2765 8.30152 29.0149 8.3206 28.7763 8.3206H26.4678V10.9418H25.8791V2.92938H28.7763C29.7921 2.92938 30.5886 3.16975 31.1657 3.6505C31.7429 4.12361 32.0314 4.78368 32.0314 5.63071C32.0314 6.26408 31.866 6.79824 31.5351 7.2332C31.2119 7.66053 30.7463 7.96195 30.1384 8.13746L32.1584 10.9418H31.4889ZM28.7763 7.80552C29.6382 7.80552 30.2962 7.61856 30.7502 7.24465C31.2042 6.8631 31.4312 6.32512 31.4312 5.63071C31.4312 4.9363 31.2042 4.40214 30.7502 4.02823C30.2962 3.64668 29.6382 3.45591 28.7763 3.45591H26.4678V7.80552H28.7763Z" fill="black"/>
<path d="M39.762 10.4153V10.9418H34.1868V2.92938H39.5889V3.45591H34.7755V6.6151H39.081V7.13018H34.7755V10.4153H39.762ZM38.0998 2.27694L36.8994 1.28111L35.6989 2.27694H35.1218L36.5762 0.92627H37.2226L38.677 2.27694H38.0998Z" fill="black"/>
<path d="M49.5497 10.9418L49.5382 4.08546L46.1561 9.8773H45.8676L42.4855 4.10835V10.9418H41.9084V2.92938H42.4047L46.0176 9.12184L49.6305 2.92938H50.1153L50.1269 10.9418H49.5497Z" fill="black"/>
<path d="M52.944 2.92938H53.5327V10.9418H52.944V2.92938Z" fill="black"/>
<path d="M59.7765 10.999C58.9839 10.999 58.2682 10.8235 57.6295 10.4725C56.9908 10.1139 56.4867 9.62548 56.1174 9.00738C55.7557 8.38928 55.5749 7.69868 55.5749 6.93559C55.5749 6.17251 55.7557 5.48191 56.1174 4.86381C56.4867 4.24571 56.9908 3.76114 57.6295 3.41012C58.2682 3.05147 58.9839 2.87215 59.7765 2.87215C60.5691 2.87215 61.2847 3.04766 61.9234 3.39868C62.5622 3.7497 63.0623 4.23426 63.424 4.85236C63.7934 5.47046 63.9781 6.16487 63.9781 6.93559C63.9781 7.70631 63.7934 8.40072 63.424 9.01883C63.0623 9.63693 62.5622 10.1215 61.9234 10.4725C61.2847 10.8235 60.5691 10.999 59.7765 10.999ZM59.7765 10.4611C60.4537 10.4611 61.0654 10.3084 61.6118 10.0032C62.1582 9.69798 62.5891 9.27828 62.9046 8.74411C63.2201 8.20232 63.3778 7.59948 63.3778 6.93559C63.3778 6.27171 63.2201 5.67268 62.9046 5.13852C62.5891 4.59673 62.1582 4.17321 61.6118 3.86798C61.0654 3.56274 60.4537 3.41012 59.7765 3.41012C59.0993 3.41012 58.4837 3.56274 57.9296 3.86798C57.3832 4.17321 56.9523 4.59673 56.6368 5.13852C56.3213 5.67268 56.1635 6.27171 56.1635 6.93559C56.1635 7.59948 56.3213 8.20232 56.6368 8.74411C56.9523 9.27828 57.3832 9.69798 57.9296 10.0032C58.4837 10.3084 59.0993 10.4611 59.7765 10.4611Z" fill="black"/>
<path d="M75.691 10.9418L73.8787 8.36639C74.9291 7.91998 75.5409 7.03861 75.5409 5.83675C75.5409 4.03967 74.1904 2.92938 72.0319 2.92938H68.5344V10.9418H70.4043V8.70978H72.0319H72.1242L73.6825 10.9418H75.691ZM73.6479 5.83675C73.6479 6.70667 73.0707 7.2332 71.928 7.2332H70.4043V4.44029H71.928C73.0707 4.44029 73.6479 4.95538 73.6479 5.83675Z" fill="black"/>
<path d="M78.8808 9.45379V7.59948H82.6323V6.15724H78.8808V4.4174H83.1286V2.92938H77.0224V10.9418H83.2787V9.45379H78.8808Z" fill="black"/>
<path d="M84.7665 10.9418H88.4372C91.0805 10.9418 92.8927 9.36222 92.8927 6.93559C92.8927 4.50897 91.0805 2.92938 88.4372 2.92938H84.7665V10.9418ZM86.6365 9.41945V4.45174H88.3448C89.9493 4.45174 90.9997 5.40179 90.9997 6.93559C90.9997 8.4694 89.9493 9.41945 88.3448 9.41945H86.6365Z" fill="black"/>
<path d="M96.1614 9.45379V7.59948H99.9128V6.15724H96.1614V4.4174H100.409V2.92938H94.303V10.9418H100.559V9.45379H96.1614Z" fill="black"/>
<path d="M104.702 11.0792C107.011 11.0792 108.13 9.93453 108.13 8.59531C108.13 5.6536 103.432 6.67233 103.432 5.19575C103.432 4.69211 103.859 4.28005 104.967 4.28005C105.683 4.28005 106.456 4.48608 107.207 4.90959L107.784 3.50169C107.034 3.03239 105.995 2.79202 104.979 2.79202C102.682 2.79202 101.574 3.92521 101.574 5.28732C101.574 8.26337 106.272 7.2332 106.272 8.73267C106.272 9.22486 105.822 9.59114 104.713 9.59114C103.744 9.59114 102.728 9.24775 102.047 8.75556L101.412 10.152C102.128 10.7014 103.421 11.0792 104.702 11.0792Z" fill="black"/>
<path d="M18.5625 20.9001V19.0458H22.3139V17.6036H18.5625V15.8637H22.8103V14.3757H16.7041V22.3881H22.9603V20.9001H18.5625Z" fill="black"/>
<path d="M31.5841 22.5255C32.9923 22.5255 34.1581 22.0219 34.92 21.0947L33.7195 19.9959C33.177 20.6254 32.4959 20.9459 31.6879 20.9459C30.1758 20.9459 29.1023 19.8928 29.1023 18.3819C29.1023 16.871 30.1758 15.8179 31.6879 15.8179C32.4959 15.8179 33.177 16.1384 33.7195 16.7565L34.92 15.6577C34.1581 14.742 32.9923 14.2384 31.5956 14.2384C29.0792 14.2384 27.2093 15.9668 27.2093 18.3819C27.2093 20.7971 29.0792 22.5255 31.5841 22.5255Z" fill="black"/>
<path d="M38.0411 20.9001V19.0458H41.7926V17.6036H38.0411V15.8637H42.2889V14.3757H36.1827V22.3881H42.439V20.9001H38.0411Z" fill="black"/>
<path d="M49.4905 14.3757V19.2404L45.4736 14.3757H43.9268V22.3881H45.7737V17.5235L49.8022 22.3881H51.3374V14.3757H49.4905Z" fill="black"/>
<path d="M54.9228 22.3881H56.7927V15.8866H59.3783V14.3757H52.3372V15.8866H54.9228V22.3881Z" fill="black"/>
<path d="M67.541 22.3881L65.7288 19.8127C66.7792 19.3663 67.391 18.4849 67.391 17.2831C67.391 15.486 66.0405 14.3757 63.882 14.3757H60.3845V22.3881H62.2544V20.1561H63.882H63.9743L65.5326 22.3881H67.541ZM65.498 17.2831C65.498 18.153 64.9208 18.6795 63.7781 18.6795H62.2544V15.8866H63.7781C64.9208 15.8866 65.498 16.4017 65.498 17.2831Z" fill="black"/>
<path d="M74.9095 22.3881H76.8718L73.2588 14.3757H71.412L67.8106 22.3881H69.7267L70.4424 20.6712H74.1938L74.9095 22.3881ZM71.0426 19.2633L72.3239 16.1957L73.6051 19.2633H71.0426Z" fill="black"/>
<path d="M77.7101 22.3881H79.58V14.3757H77.7101V22.3881Z" fill="black"/>
<path d="M84.1524 22.5255C86.461 22.5255 87.5807 21.3809 87.5807 20.0416C87.5807 17.0999 82.8827 18.1187 82.8827 16.6421C82.8827 16.1384 83.3098 15.7264 84.4179 15.7264C85.1336 15.7264 85.907 15.9324 86.6572 16.3559L87.2344 14.948C86.4841 14.4787 85.4452 14.2384 84.4295 14.2384C82.1324 14.2384 81.0243 15.3715 81.0243 16.7337C81.0243 19.7097 85.7223 18.6795 85.7223 20.179C85.7223 20.6712 85.2721 21.0375 84.164 21.0375C83.1944 21.0375 82.1786 20.6941 81.4976 20.2019L80.8627 21.5983C81.5784 22.1478 82.8712 22.5255 84.1524 22.5255Z" fill="black"/>
<path d="M92.1274 22.3881H95.798C98.4414 22.3881 100.254 20.8085 100.254 18.3819C100.254 15.9553 98.4414 14.3757 95.798 14.3757H92.1274V22.3881ZM93.9973 20.8658V15.8981H95.7057C97.3102 15.8981 98.3606 16.8481 98.3606 18.3819C98.3606 19.9157 97.3102 20.8658 95.7057 20.8658H93.9973Z" fill="black"/>
<path d="M103.522 20.9001V19.0458H107.274V17.6036H103.522V15.8637H107.77V14.3757H101.664V22.3881H107.92V20.9001H103.522Z" fill="black"/>
<path d="M49.9301 25.822V30.6867L45.9132 25.822H44.3664V33.8345H46.2133V28.9698L50.2418 33.8345H51.777V25.822H49.9301Z" fill="black"/>
<path d="M55.5471 32.3465V30.4921H59.2985V29.0499H55.5471V27.3101H59.7949V25.822H53.6887V33.8345H59.9449V32.3465H55.5471Z" fill="black"/>
<path d="M66.87 32.0488C66.3968 32.3007 65.9235 32.3922 65.4156 32.3922C63.8689 32.3922 62.7954 31.3277 62.7954 29.8283C62.7954 28.3059 63.8689 27.2643 65.4387 27.2643C66.2583 27.2643 66.9393 27.5504 67.528 28.1685L68.7284 27.0697C67.9435 26.1654 66.7661 25.6847 65.3464 25.6847C62.7723 25.6847 60.9024 27.4131 60.9024 29.8283C60.9024 32.2434 62.7723 33.9718 65.3117 33.9718C66.466 33.9718 67.6896 33.617 68.5784 32.9531V29.7023H66.87V32.0488Z" fill="black"/>
<path d="M73.178 25.1696H74.5863L76.6755 23.5213H74.7363L73.178 25.1696ZM74.2284 33.9718C76.7679 33.9718 78.6494 32.2205 78.6494 29.8283C78.6494 27.436 76.7679 25.6847 74.2284 25.6847C71.6775 25.6847 69.8075 27.4474 69.8075 29.8283C69.8075 32.2091 71.6775 33.9718 74.2284 33.9718ZM74.2284 32.3922C72.7856 32.3922 71.7005 31.3506 71.7005 29.8283C71.7005 28.3059 72.7856 27.2643 74.2284 27.2643C75.6713 27.2643 76.7563 28.3059 76.7563 29.8283C76.7563 31.3506 75.6713 32.3922 74.2284 32.3922Z" fill="black"/>
<path d="M83.9216 33.9718C85.3298 33.9718 86.4956 33.4682 87.2575 32.541L86.057 31.4422C85.5145 32.0717 84.8335 32.3922 84.0255 32.3922C82.5133 32.3922 81.4398 31.3392 81.4398 29.8283C81.4398 28.3173 82.5133 27.2643 84.0255 27.2643C84.8335 27.2643 85.5145 27.5848 86.057 28.2029L87.2575 27.104C86.4956 26.1883 85.3298 25.6847 83.9331 25.6847C81.4168 25.6847 79.5468 27.4131 79.5468 29.8283C79.5468 32.2434 81.4168 33.9718 83.9216 33.9718Z" fill="black"/>
<path d="M88.5202 33.8345H90.3902V25.822H88.5202V33.8345Z" fill="black"/>
<path d="M96.2208 33.9718C98.7602 33.9718 100.642 32.2205 100.642 29.8283C100.642 27.436 98.7602 25.6847 96.2208 25.6847C93.6698 25.6847 91.7999 27.4474 91.7999 29.8283C91.7999 32.2091 93.6698 33.9718 96.2208 33.9718ZM96.2208 32.3922C94.7779 32.3922 93.6929 31.3506 93.6929 29.8283C93.6929 28.3059 94.7779 27.2643 96.2208 27.2643C97.6637 27.2643 98.7487 28.3059 98.7487 29.8283C98.7487 31.3506 97.6637 32.3922 96.2208 32.3922Z" fill="black"/>
<path d="M104.702 33.9718C107.011 33.9718 108.13 32.8272 108.13 31.488C108.13 28.5463 103.432 29.565 103.432 28.0884C103.432 27.5848 103.859 27.1727 104.967 27.1727C105.683 27.1727 106.456 27.3787 107.207 27.8023L107.784 26.3944C107.034 25.9251 105.995 25.6847 104.979 25.6847C102.682 25.6847 101.574 26.8179 101.574 28.18C101.574 31.156 106.272 30.1259 106.272 31.6253C106.272 32.1175 105.822 32.4838 104.713 32.4838C103.744 32.4838 102.728 32.1404 102.047 31.6482L101.412 33.0447C102.128 33.5941 103.421 33.9718 104.702 33.9718Z" fill="black"/>
<path fill-rule="evenodd" clip-rule="evenodd" d="M111.435 0.925781H145.582V11.3762C143.362 11.9861 141.248 12.2081 140.079 12.2334C138.084 12.1902 133.343 11.5748 130.011 9.4385C132.34 11.4279 135.979 15.7098 137.368 20.8302C136.054 21.2874 134.694 21.4396 134.015 21.4524C133.055 21.4343 130.734 21.1375 129.105 20.0934C130.03 20.8836 131.381 22.4181 132.212 24.311C131.129 24.9127 129.714 25.0893 129.105 25.1008C128.454 25.0885 126.882 24.8875 125.778 24.18C126.795 25.0484 128.57 27.2432 128.372 29.6495C127.175 30.3504 126.045 31.2154 125.01 32.2695C125.001 32.2759 124.998 32.279 125.001 32.2786L125.01 32.2695C125.306 32.0585 132.133 28.264 145.582 29.3258V35.0729H111.435V0.925781ZM137.62 8.87577C137.62 10.2339 138.721 11.3349 140.079 11.3349C141.437 11.3349 142.538 10.2339 142.538 8.87577C142.538 7.51762 141.437 6.41662 140.079 6.41662C138.721 6.41662 137.62 7.51762 137.62 8.87577ZM132.666 19.4624C132.666 20.2074 133.27 20.8114 134.015 20.8114C134.76 20.8114 135.364 20.2074 135.364 19.4624C135.364 18.7174 134.76 18.1134 134.015 18.1134C133.27 18.1134 132.666 18.7174 132.666 19.4624ZM128.026 23.4913C128.026 24.0873 128.509 24.5705 129.105 24.5705C129.701 24.5705 130.184 24.0873 130.184 23.4913C130.184 22.8952 129.701 22.4121 129.105 22.4121C128.509 22.4121 128.026 22.8952 128.026 23.4913Z" fill="black"/>
<path d="M129.839 28.8856C130.845 28.4223 131.889 28.0597 132.954 27.7844C132.984 26.5769 132.69 25.4128 132.233 24.3583C131.319 25.2137 129.999 26.9356 129.839 28.8856Z" fill="black"/>
<path d="M135.08 27.3511C135.967 27.2158 136.862 27.1329 137.758 27.0952C138.066 25.1883 137.947 23.3136 137.542 21.5301C136.36 22.9788 135.166 25.0715 135.08 27.3511Z" fill="black"/>
<path d="M142.43 27.2761C143.506 27.3982 144.561 27.5701 145.582 27.7784V14.7509C143.353 18.1846 141.614 22.6407 142.43 27.2761Z" fill="black"/>
</svg>
