<svg width="130" height="36" viewBox="0 0 130 36" fill="none" xmlns="http://www.w3.org/2000/svg">
<path d="M4.11866 2.92938C5.13443 2.92938 5.93089 3.16975 6.50804 3.6505C7.08518 4.12361 7.37375 4.78368 7.37375 5.63071C7.37375 6.47011 7.08518 7.13018 6.50804 7.61093C5.93089 8.08404 5.13443 8.3206 4.11866 8.3206H1.81008V10.9418H1.22139V2.92938H4.11866ZM4.11866 7.79407C4.98053 7.79407 5.63847 7.60711 6.09249 7.2332C6.54651 6.85929 6.77352 6.32512 6.77352 5.63071C6.77352 4.9363 6.54651 4.40214 6.09249 4.02823C5.63847 3.64668 4.98053 3.45591 4.11866 3.45591H1.81008V7.79407H4.11866Z" fill="black"/>
<path d="M14.9699 10.9418L13.0422 8.26337C12.7575 8.30152 12.4958 8.3206 12.2573 8.3206H9.94872V10.9418H9.36003V2.92938H12.2573C13.2731 2.92938 14.0695 3.16975 14.6467 3.6505C15.2238 4.12361 15.5124 4.78368 15.5124 5.63071C15.5124 6.26408 15.3469 6.79824 15.016 7.2332C14.6928 7.66053 14.2273 7.96195 13.6194 8.13746L15.6394 10.9418H14.9699ZM12.2573 7.80552C13.1192 7.80552 13.7771 7.61856 14.2311 7.24465C14.6851 6.8631 14.9122 6.32512 14.9122 5.63071C14.9122 4.9363 14.6851 4.40214 14.2311 4.02823C13.7771 3.64668 13.1192 3.45591 12.2573 3.45591H9.94872V7.80552H12.2573Z" fill="black"/>
<path d="M23.243 10.4153V10.9418H17.6678V2.92938H23.0698V3.45591H18.2564V6.6151H22.5619V7.13018H18.2564V10.4153H23.243ZM21.5808 2.27694L20.3803 1.28111L19.1799 2.27694H18.6027L20.0571 0.92627H20.7035L22.1579 2.27694H21.5808Z" fill="black"/>
<path d="M33.0307 10.9418L33.0192 4.08546L29.6371 9.8773H29.3485L25.9665 4.10835V10.9418H25.3893V2.92938H25.8857L29.4986 9.12184L33.1115 2.92938H33.5963L33.6078 10.9418H33.0307Z" fill="black"/>
<path d="M36.4249 2.92938H37.0136V10.9418H36.4249V2.92938Z" fill="black"/>
<path d="M43.2574 10.999C42.4648 10.999 41.7492 10.8235 41.1105 10.4725C40.4717 10.1139 39.9677 9.62548 39.5983 9.00738C39.2367 8.38928 39.0558 7.69868 39.0558 6.93559C39.0558 6.17251 39.2367 5.48191 39.5983 4.86381C39.9677 4.24571 40.4717 3.76114 41.1105 3.41012C41.7492 3.05147 42.4648 2.87215 43.2574 2.87215C44.05 2.87215 44.7657 3.04766 45.4044 3.39868C46.0431 3.7497 46.5433 4.23426 46.905 4.85236C47.2744 5.47046 47.459 6.16487 47.459 6.93559C47.459 7.70631 47.2744 8.40072 46.905 9.01883C46.5433 9.63693 46.0431 10.1215 45.4044 10.4725C44.7657 10.8235 44.05 10.999 43.2574 10.999ZM43.2574 10.4611C43.9346 10.4611 44.5464 10.3084 45.0927 10.0032C45.6391 9.69798 46.07 9.27828 46.3855 8.74411C46.7011 8.20232 46.8588 7.59948 46.8588 6.93559C46.8588 6.27171 46.7011 5.67268 46.3855 5.13852C46.07 4.59673 45.6391 4.17321 45.0927 3.86798C44.5464 3.56274 43.9346 3.41012 43.2574 3.41012C42.5802 3.41012 41.9646 3.56274 41.4106 3.86798C40.8642 4.17321 40.4333 4.59673 40.1178 5.13852C39.8023 5.67268 39.6445 6.27171 39.6445 6.93559C39.6445 7.59948 39.8023 8.20232 40.1178 8.74411C40.4333 9.27828 40.8642 9.69798 41.4106 10.0032C41.9646 10.3084 42.5802 10.4611 43.2574 10.4611Z" fill="black"/>
<path d="M59.1719 10.9418L57.3597 8.36639C58.4101 7.91998 59.0219 7.03861 59.0219 5.83675C59.0219 4.03967 57.6713 2.92938 55.5128 2.92938H52.0153V10.9418H53.8853V8.70978H55.5128H55.6052L57.1635 10.9418H59.1719ZM57.1288 5.83675C57.1288 6.70667 56.5517 7.2332 55.4089 7.2332H53.8853V4.44029H55.4089C56.5517 4.44029 57.1288 4.95538 57.1288 5.83675Z" fill="black"/>
<path d="M62.3618 9.45379V7.59948H66.1132V6.15724H62.3618V4.4174H66.6096V2.92938H60.5034V10.9418H66.7596V9.45379H62.3618Z" fill="black"/>
<path d="M68.2475 10.9418H71.9181C74.5615 10.9418 76.3737 9.36222 76.3737 6.93559C76.3737 4.50897 74.5615 2.92938 71.9181 2.92938H68.2475V10.9418ZM70.1175 9.41945V4.45174H71.8258C73.4303 4.45174 74.4807 5.40179 74.4807 6.93559C74.4807 8.4694 73.4303 9.41945 71.8258 9.41945H70.1175Z" fill="black"/>
<path d="M79.6423 9.45379V7.59948H83.3938V6.15724H79.6423V4.4174H83.8901V2.92938H77.7839V10.9418H84.0402V9.45379H79.6423Z" fill="black"/>
<path d="M88.1829 11.0792C90.4915 11.0792 91.6111 9.93453 91.6111 8.59531C91.6111 5.6536 86.9132 6.67233 86.9132 5.19575C86.9132 4.69211 87.3403 4.28005 88.4484 4.28005C89.164 4.28005 89.9374 4.48608 90.6877 4.90959L91.2648 3.50169C90.5145 3.03239 89.4757 2.79202 88.4599 2.79202C86.1629 2.79202 85.0548 3.92521 85.0548 5.28732C85.0548 8.26337 89.7527 7.2332 89.7527 8.73267C89.7527 9.22486 89.3025 9.59114 88.1944 9.59114C87.2248 9.59114 86.2091 9.24775 85.528 8.75556L84.8932 10.152C85.6088 10.7014 86.9016 11.0792 88.1829 11.0792Z" fill="black"/>
<path d="M2.04346 20.9001V19.0458H5.7949V17.6036H2.04346V15.8637H6.29125V14.3757H0.185059V22.3881H6.4413V20.9001H2.04346Z" fill="black"/>
<path d="M15.065 22.5255C16.4732 22.5255 17.6391 22.0219 18.4009 21.0947L17.2004 19.9959C16.6579 20.6254 15.9769 20.9459 15.1689 20.9459C13.6568 20.9459 12.5833 19.8928 12.5833 18.3819C12.5833 16.871 13.6568 15.8179 15.1689 15.8179C15.9769 15.8179 16.6579 16.1384 17.2004 16.7565L18.4009 15.6577C17.6391 14.742 16.4732 14.2384 15.0766 14.2384C12.5602 14.2384 10.6903 15.9668 10.6903 18.3819C10.6903 20.7971 12.5602 22.5255 15.065 22.5255Z" fill="black"/>
<path d="M21.5221 20.9001V19.0458H25.2735V17.6036H21.5221V15.8637H25.7699V14.3757H19.6637V22.3881H25.9199V20.9001H21.5221Z" fill="black"/>
<path d="M32.9715 14.3757V19.2404L28.9545 14.3757H27.4078V22.3881H29.2546V17.5235L33.2831 22.3881H34.8183V14.3757H32.9715Z" fill="black"/>
<path d="M38.4037 22.3881H40.2737V15.8866H42.8593V14.3757H35.8181V15.8866H38.4037V22.3881Z" fill="black"/>
<path d="M51.022 22.3881L49.2098 19.8127C50.2602 19.3663 50.8719 18.4849 50.8719 17.2831C50.8719 15.486 49.5214 14.3757 47.3629 14.3757H43.8654V22.3881H45.7354V20.1561H47.3629H47.4553L49.0135 22.3881H51.022ZM48.9789 17.2831C48.9789 18.153 48.4018 18.6795 47.259 18.6795H45.7354V15.8866H47.259C48.4018 15.8866 48.9789 16.4017 48.9789 17.2831Z" fill="black"/>
<path d="M58.3904 22.3881H60.3527L56.7398 14.3757H54.8929L51.2915 22.3881H53.2077L53.9233 20.6712H57.6748L58.3904 22.3881ZM54.5236 19.2633L55.8048 16.1957L57.0861 19.2633H54.5236Z" fill="black"/>
<path d="M61.191 22.3881H63.061V14.3757H61.191V22.3881Z" fill="black"/>
<path d="M67.6334 22.5255C69.942 22.5255 71.0616 21.3809 71.0616 20.0416C71.0616 17.0999 66.3637 18.1187 66.3637 16.6421C66.3637 16.1384 66.7908 15.7264 67.8989 15.7264C68.6145 15.7264 69.3879 15.9324 70.1382 16.3559L70.7153 14.948C69.965 14.4787 68.9262 14.2384 67.9104 14.2384C65.6134 14.2384 64.5053 15.3715 64.5053 16.7337C64.5053 19.7097 69.2032 18.6795 69.2032 20.179C69.2032 20.6712 68.7531 21.0375 67.6449 21.0375C66.6753 21.0375 65.6596 20.6941 64.9785 20.2019L64.3437 21.5983C65.0593 22.1478 66.3521 22.5255 67.6334 22.5255Z" fill="black"/>
<path d="M75.6084 22.3881H79.279C81.9223 22.3881 83.7345 20.8085 83.7345 18.3819C83.7345 15.9553 81.9223 14.3757 79.279 14.3757H75.6084V22.3881ZM77.4783 20.8658V15.8981H79.1866C80.7911 15.8981 81.8415 16.8481 81.8415 18.3819C81.8415 19.9157 80.7911 20.8658 79.1866 20.8658H77.4783Z" fill="black"/>
<path d="M87.0032 20.9001V19.0458H90.7546V17.6036H87.0032V15.8637H91.251V14.3757H85.1448V22.3881H91.401V20.9001H87.0032Z" fill="black"/>
<path d="M33.4111 25.822V30.6867L29.3942 25.822H27.8474V33.8345H29.6943V28.9698L33.7227 33.8345H35.2579V25.822H33.4111Z" fill="black"/>
<path d="M39.028 32.3465V30.4921H42.7795V29.0499H39.028V27.3101H43.2758V25.822H37.1696V33.8345H43.4259V32.3465H39.028Z" fill="black"/>
<path d="M50.351 32.0488C49.8777 32.3007 49.4045 32.3922 48.8966 32.3922C47.3498 32.3922 46.2763 31.3277 46.2763 29.8283C46.2763 28.3059 47.3498 27.2643 48.9197 27.2643C49.7392 27.2643 50.4202 27.5504 51.0089 28.1685L52.2094 27.0697C51.4245 26.1654 50.2471 25.6847 48.8273 25.6847C46.2533 25.6847 44.3833 27.4131 44.3833 29.8283C44.3833 32.2434 46.2533 33.9718 48.7927 33.9718C49.947 33.9718 51.1705 33.617 52.0593 32.9531V29.7023H50.351V32.0488Z" fill="black"/>
<path d="M56.659 25.1696H58.0672L60.1565 23.5213H58.2173L56.659 25.1696ZM57.7094 33.9718C60.2488 33.9718 62.1303 32.2205 62.1303 29.8283C62.1303 27.436 60.2488 25.6847 57.7094 25.6847C55.1584 25.6847 53.2885 27.4474 53.2885 29.8283C53.2885 32.2091 55.1584 33.9718 57.7094 33.9718ZM57.7094 32.3922C56.2665 32.3922 55.1815 31.3506 55.1815 29.8283C55.1815 28.3059 56.2665 27.2643 57.7094 27.2643C59.1523 27.2643 60.2373 28.3059 60.2373 29.8283C60.2373 31.3506 59.1523 32.3922 57.7094 32.3922Z" fill="black"/>
<path d="M67.4025 33.9718C68.8108 33.9718 69.9766 33.4682 70.7384 32.541L69.538 31.4422C68.9955 32.0717 68.3144 32.3922 67.5064 32.3922C65.9943 32.3922 64.9208 31.3392 64.9208 29.8283C64.9208 28.3173 65.9943 27.2643 67.5064 27.2643C68.3144 27.2643 68.9955 27.5848 69.538 28.2029L70.7384 27.104C69.9766 26.1883 68.8108 25.6847 67.4141 25.6847C64.8977 25.6847 63.0278 27.4131 63.0278 29.8283C63.0278 32.2434 64.8977 33.9718 67.4025 33.9718Z" fill="black"/>
<path d="M72.0012 33.8345H73.8711V25.822H72.0012V33.8345Z" fill="black"/>
<path d="M79.7017 33.9718C82.2412 33.9718 84.1227 32.2205 84.1227 29.8283C84.1227 27.436 82.2412 25.6847 79.7017 25.6847C77.1508 25.6847 75.2808 27.4474 75.2808 29.8283C75.2808 32.2091 77.1508 33.9718 79.7017 33.9718ZM79.7017 32.3922C78.2589 32.3922 77.1739 31.3506 77.1739 29.8283C77.1739 28.3059 78.2589 27.2643 79.7017 27.2643C81.1446 27.2643 82.2296 28.3059 82.2296 29.8283C82.2296 31.3506 81.1446 32.3922 79.7017 32.3922Z" fill="black"/>
<path d="M88.1829 33.9718C90.4915 33.9718 91.6111 32.8272 91.6111 31.488C91.6111 28.5463 86.9132 29.565 86.9132 28.0884C86.9132 27.5848 87.3403 27.1727 88.4484 27.1727C89.164 27.1727 89.9374 27.3787 90.6877 27.8023L91.2648 26.3944C90.5145 25.9251 89.4757 25.6847 88.4599 25.6847C86.1629 25.6847 85.0548 26.8179 85.0548 28.18C85.0548 31.156 89.7527 30.1259 89.7527 31.6253C89.7527 32.1175 89.3025 32.4838 88.1944 32.4838C87.2248 32.4838 86.2091 32.1404 85.528 31.6482L84.8932 33.0447C85.6088 33.5941 86.9016 33.9718 88.1829 33.9718Z" fill="black"/>
<path fill-rule="evenodd" clip-rule="evenodd" d="M94.9155 0.925781H129.063V11.3762C126.843 11.9861 124.729 12.2081 123.56 12.2334C121.564 12.1902 116.824 11.5748 113.492 9.4385C115.821 11.4279 119.46 15.7098 120.849 20.8302C119.535 21.2874 118.175 21.4396 117.496 21.4524C116.536 21.4343 114.215 21.1375 112.586 20.0934C113.511 20.8836 114.862 22.4181 115.693 24.311C114.61 24.9127 113.195 25.0893 112.586 25.1008C111.935 25.0885 110.363 24.8875 109.259 24.18C110.276 25.0484 112.051 27.2432 111.853 29.6495C110.656 30.3504 109.526 31.2154 108.491 32.2695C108.482 32.2759 108.479 32.279 108.482 32.2786L108.491 32.2695C108.787 32.0585 115.614 28.264 129.063 29.3258V35.0729H94.9155V0.925781ZM121.101 8.87577C121.101 10.2339 122.202 11.3349 123.56 11.3349C124.918 11.3349 126.019 10.2339 126.019 8.87577C126.019 7.51762 124.918 6.41662 123.56 6.41662C122.202 6.41662 121.101 7.51762 121.101 8.87577ZM116.147 19.4624C116.147 20.2074 116.751 20.8114 117.496 20.8114C118.241 20.8114 118.845 20.2074 118.845 19.4624C118.845 18.7174 118.241 18.1134 117.496 18.1134C116.751 18.1134 116.147 18.7174 116.147 19.4624ZM111.507 23.4913C111.507 24.0873 111.99 24.5705 112.586 24.5705C113.182 24.5705 113.665 24.0873 113.665 23.4913C113.665 22.8952 113.182 22.4121 112.586 22.4121C111.99 22.4121 111.507 22.8952 111.507 23.4913Z" fill="black"/>
<path d="M113.32 28.8856C114.326 28.4223 115.37 28.0597 116.435 27.7844C116.465 26.5769 116.171 25.4128 115.714 24.3583C114.8 25.2137 113.48 26.9356 113.32 28.8856Z" fill="black"/>
<path d="M118.56 27.3511C119.448 27.2158 120.343 27.1329 121.239 27.0952C121.547 25.1883 121.427 23.3136 121.023 21.5301C119.841 22.9788 118.647 25.0715 118.56 27.3511Z" fill="black"/>
<path d="M125.911 27.2761C126.987 27.3982 128.042 27.5701 129.063 27.7784V14.7509C126.834 18.1846 125.095 22.6407 125.911 27.2761Z" fill="black"/>
</svg>
