<svg width="302" height="36" viewBox="0 0 302 36" fill="none" xmlns="http://www.w3.org/2000/svg">
<path d="M207.94 16.28C209.095 15.3684 210.555 14.9188 212.298 14.9188C215.295 14.9188 216.794 16.6215 216.794 20.0269V25.0776H213.676V24.1851H213.535C212.798 24.8541 211.834 25.2167 210.839 25.1991C209.805 25.1991 208.954 24.9121 208.264 24.3277C207.595 23.7394 207.251 23.0497 207.251 22.2194C207.251 20.861 207.818 19.9083 208.771 19.4453C209.728 18.9584 210.656 18.7757 211.792 18.7757H213.676C213.676 17.9033 212.926 17.1744 211.731 17.1744C210.859 17.1744 209.947 17.5187 208.994 18.1874L207.94 16.28ZM213.66 21.0839V20.8409H211.974C210.94 20.8409 210.413 21.1853 210.413 21.8932C210.413 22.4805 210.859 22.8861 211.669 22.8861C212.744 22.888 213.66 22.1581 213.66 21.0839ZM212.156 11.6387H214.69L212.703 14.0502H210.859L212.156 11.6387Z" fill="black"/>
<path d="M225.108 15.1855L224.438 17.9825C224.094 17.7797 223.587 17.6783 222.959 17.6783C221.906 17.6783 221.013 18.4493 221.013 19.4824V25.0774H217.869V15.064H221.03V16.2396H221.132C221.639 15.4485 222.591 14.9215 223.503 14.9215C224.176 14.9186 224.703 15.0028 225.108 15.1855Z" fill="black"/>
<path d="M227.947 21.428C227.947 22.5022 228.778 23.0704 229.934 23.0704C230.986 23.0704 232.204 22.705 232.708 22.1138L234.208 23.5936C233.072 24.688 231.612 25.2351 229.849 25.2351C228.045 25.2351 226.748 24.8295 225.917 23.9992C225.106 23.1702 224.701 22.1566 224.701 20.9583V19.401C224.701 18.2464 225.147 17.2123 226.018 16.2998C226.89 15.3872 228.088 14.9185 229.568 14.9185C232.426 14.9185 234.089 16.2366 234.089 18.101C234.089 19.0576 233.706 19.8448 232.912 20.4723C232.142 21.1008 231.17 21.4289 230.014 21.4289L227.947 21.428ZM229.71 19.401C230.582 19.401 231.19 18.9351 231.19 18.145C231.19 17.4964 230.642 17.0497 229.811 17.0497C228.737 17.0497 227.886 17.9221 227.886 19.401H229.71Z" fill="black"/>
<path d="M234.696 16.2797C235.853 15.368 237.311 14.9185 239.054 14.9185C242.051 14.9185 243.55 16.6212 243.55 20.0266V25.0773H240.433V24.1848H240.291C239.554 24.8538 238.59 25.2164 237.595 25.1988C236.561 25.1988 235.71 24.9118 235.02 24.3273C234.351 23.739 234.007 23.0503 234.007 22.2229C234.007 20.8645 234.575 19.9118 235.527 19.4488C236.484 18.9619 237.413 18.7792 238.548 18.7792H240.433C240.433 17.9068 239.683 17.1779 238.487 17.1779C237.616 17.1779 236.703 17.5223 235.75 18.1909L234.696 16.2797ZM240.413 21.0836V20.8406H238.73C237.697 20.8406 237.17 21.185 237.17 21.8929C237.17 22.4802 237.616 22.8858 238.426 22.8858C239.5 22.8877 240.413 22.1578 240.413 21.0836V21.0836Z" fill="black"/>
<path d="M253.406 22.0762C252.899 23.9215 251.337 25.2186 248.845 25.2186C247.41 25.2186 246.25 24.7929 245.338 23.9617C244.426 23.1103 243.98 22.0762 243.98 20.8805V19.2792C243.972 18.691 244.09 18.1077 244.328 17.5696C244.566 17.0315 244.917 16.5512 245.358 16.1617C246.27 15.3305 247.446 14.9048 248.845 14.9048C251.379 14.9048 252.98 16.2832 253.406 18.1275L250.365 18.8985C250.29 18.5372 250.091 18.2135 249.802 17.9838C249.513 17.7541 249.153 17.633 248.784 17.6416C248.567 17.64 248.352 17.6813 248.151 17.763C247.95 17.8447 247.767 17.9652 247.613 18.1177C247.458 18.2701 247.336 18.4515 247.251 18.6515C247.167 18.8514 247.123 19.0661 247.122 19.283V20.8643C247.122 21.7558 247.892 22.4857 248.784 22.4857C249.141 22.4905 249.489 22.3751 249.772 22.1582C250.055 21.9413 250.257 21.6355 250.345 21.2899L253.406 22.0762Z" fill="black"/>
<path d="M256.547 21.428C256.547 22.5022 257.378 23.0704 258.534 23.0704C259.586 23.0704 260.804 22.705 261.308 22.1138L262.808 23.5936C261.672 24.688 260.213 25.2351 258.45 25.2351C256.645 25.2351 255.348 24.8295 254.517 23.9992C253.707 23.1702 253.302 22.1566 253.301 20.9583V19.401C253.301 18.2464 253.747 17.2123 254.618 16.2998C255.49 15.3872 256.689 14.9185 258.169 14.9185C261.027 14.9185 262.689 16.2366 262.689 18.101C262.689 19.0576 262.306 19.8448 261.513 20.4723C260.748 21.1008 259.771 21.4289 258.615 21.4289L256.547 21.428ZM258.311 19.401C259.182 19.401 259.791 18.9351 259.791 18.145C259.791 17.4964 259.244 17.0497 258.412 17.0497C257.338 17.0497 256.487 17.9221 256.487 19.401H258.311Z" fill="black"/>
<path d="M272.906 25.0774H269.744V20.1309C269.754 19.6952 269.712 19.2598 269.62 18.8338C269.479 18.1642 269.053 17.6381 268.16 17.6381C267.204 17.6381 266.519 18.3077 266.519 19.2595V25.0774H263.358V15.0639H266.541V16.2395H266.622C267.088 15.4896 268.248 14.9214 269.439 14.9214C271.75 14.9214 272.906 16.2389 272.906 18.874V25.0774Z" fill="black"/>
<path d="M277.547 15.0643H279.574V17.1927H277.547V21.1252C277.547 22.077 277.891 22.4644 278.864 22.4644H279.574V25.0778H278.723C275.581 25.0778 274.384 23.9423 274.384 21.1252V17.1927H272.968V15.0643H274.386V12.5103H277.549L277.547 15.0643Z" fill="black"/>
<path d="M287.338 15.1855L286.668 17.9825C286.324 17.7797 285.817 17.6783 285.188 17.6783C284.136 17.6783 283.242 18.4493 283.242 19.4824V25.0774H280.101V15.064H283.258V16.2396H283.359C283.866 15.4485 284.819 14.9215 285.731 14.9215C286.405 14.9186 286.934 15.0028 287.338 15.1855Z" fill="black"/>
<path d="M287.095 16.2797C288.249 15.368 289.708 14.9185 291.452 14.9185C294.453 14.9185 295.951 16.6212 295.948 20.0266V25.0773H292.83V24.1848H292.689C291.953 24.8535 290.989 25.2161 289.995 25.1988C288.961 25.1988 288.109 24.9118 287.421 24.3273C286.751 23.739 286.407 23.0503 286.407 22.2229C286.407 20.8645 286.974 19.9118 287.927 19.4488C288.883 18.9619 289.812 18.7792 290.948 18.7792H292.832C292.832 17.9068 292.082 17.1779 290.886 17.1779C290.015 17.1779 289.102 17.5223 288.15 18.1909L287.095 16.2797ZM292.81 21.0836V20.8406H291.127C290.094 20.8406 289.567 21.185 289.567 21.8929C289.567 22.4802 290.013 22.8858 290.824 22.8858C291.898 22.8877 292.81 22.1578 292.81 21.0836V21.0836Z" fill="black"/>
<path d="M301.364 22.442V25.0975H300.006C297.756 25.0975 296.641 23.8205 296.641 21.2865V10.7642H299.824V21.2664C299.824 22.0565 300.229 22.442 301.039 22.442H301.364Z" fill="black"/>
<path fill-rule="evenodd" clip-rule="evenodd" d="M157.937 0.925781H192.084V35.0729H157.937V0.925781ZM162.318 12.5624C163.987 11.2518 166.092 10.6054 168.607 10.6054C172.932 10.6054 175.095 13.0534 175.095 17.9493L175.095 25.2106H170.596V23.9275H170.392C169.329 24.8892 167.938 25.4106 166.502 25.3852C165.01 25.3852 163.781 24.9727 162.786 24.1324C161.82 23.2866 161.324 22.2964 161.324 21.1068C161.324 19.154 162.143 17.7842 163.517 17.1186C164.898 16.4186 166.238 16.1559 167.877 16.1559H170.596C170.596 14.9017 169.514 13.8538 167.788 13.8538C166.531 13.8538 165.214 14.3489 163.839 15.3102L162.318 12.5624ZM170.567 19.1196V19.4689C170.567 21.0133 169.25 22.0626 167.7 22.0599C166.531 22.0599 165.888 21.4768 165.888 20.6324C165.888 19.6147 166.648 19.1196 168.139 19.1196H170.567ZM182.115 25.4133C185.712 25.4133 187.965 23.5484 188.696 20.8956L184.279 19.7651C184.152 20.2619 183.861 20.7016 183.453 21.0135C183.044 21.3253 182.542 21.4911 182.028 21.4842C180.74 21.4842 179.629 20.4349 179.629 19.1531V16.8799C179.63 16.5679 179.694 16.2594 179.816 15.9719C179.937 15.6844 180.114 15.4236 180.337 15.2044C180.56 14.9853 180.824 14.812 181.114 14.6945C181.404 14.5771 181.715 14.5177 182.028 14.5199C182.56 14.5077 183.08 14.6818 183.497 15.012C183.913 15.3422 184.2 15.8075 184.308 16.327L188.696 15.2185C188.082 12.5671 185.771 10.5853 182.115 10.5853C180.097 10.5853 178.4 11.1973 177.083 12.3924C176.447 12.9524 175.94 13.6429 175.597 14.4165C175.254 15.1902 175.083 16.0286 175.095 16.8744L175.095 19.1765C175.095 20.8956 175.739 22.3822 177.054 23.6062C178.371 24.8013 180.044 25.4133 182.115 25.4133Z" fill="black"/>
<path d="M18.1187 2.92938C19.1344 2.92938 19.9309 3.16975 20.508 3.6505C21.0852 4.12361 21.3738 4.78368 21.3738 5.63071C21.3738 6.47011 21.0852 7.13018 20.508 7.61093C19.9309 8.08404 19.1344 8.3206 18.1187 8.3206H15.8101V10.9418H15.2214V2.92938H18.1187ZM18.1187 7.79407C18.9805 7.79407 19.6385 7.60711 20.0925 7.2332C20.5465 6.85929 20.7735 6.32512 20.7735 5.63071C20.7735 4.9363 20.5465 4.40214 20.0925 4.02823C19.6385 3.64668 18.9805 3.45591 18.1187 3.45591H15.8101V7.79407H18.1187Z" fill="black"/>
<path d="M28.9699 10.9418L27.0422 8.26337C26.7575 8.30152 26.4958 8.3206 26.2573 8.3206H23.9487V10.9418H23.36V2.92938H26.2573C27.2731 2.92938 28.0695 3.16975 28.6467 3.6505C29.2238 4.12361 29.5124 4.78368 29.5124 5.63071C29.5124 6.26408 29.3469 6.79824 29.016 7.2332C28.6928 7.66053 28.2273 7.96195 27.6194 8.13746L29.6394 10.9418H28.9699ZM26.2573 7.80552C27.1192 7.80552 27.7771 7.61856 28.2311 7.24465C28.6851 6.8631 28.9122 6.32512 28.9122 5.63071C28.9122 4.9363 28.6851 4.40214 28.2311 4.02823C27.7771 3.64668 27.1192 3.45591 26.2573 3.45591H23.9487V7.80552H26.2573Z" fill="black"/>
<path d="M37.243 10.4153V10.9418H31.6678V2.92938H37.0698V3.45591H32.2564V6.6151H36.5619V7.13018H32.2564V10.4153H37.243ZM35.5808 2.27694L34.3803 1.28111L33.1799 2.27694H32.6027L34.0571 0.92627H34.7035L36.1579 2.27694H35.5808Z" fill="black"/>
<path d="M47.0307 10.9418L47.0192 4.08546L43.6371 9.8773H43.3485L39.9665 4.10835V10.9418H39.3893V2.92938H39.8857L43.4986 9.12184L47.1115 2.92938H47.5963L47.6078 10.9418H47.0307Z" fill="black"/>
<path d="M50.4249 2.92938H51.0136V10.9418H50.4249V2.92938Z" fill="black"/>
<path d="M57.2574 10.999C56.4648 10.999 55.7492 10.8235 55.1105 10.4725C54.4717 10.1139 53.9677 9.62548 53.5983 9.00738C53.2367 8.38928 53.0558 7.69868 53.0558 6.93559C53.0558 6.17251 53.2367 5.48191 53.5983 4.86381C53.9677 4.24571 54.4717 3.76114 55.1105 3.41012C55.7492 3.05147 56.4648 2.87215 57.2574 2.87215C58.05 2.87215 58.7657 3.04766 59.4044 3.39868C60.0431 3.7497 60.5433 4.23426 60.905 4.85236C61.2744 5.47046 61.459 6.16487 61.459 6.93559C61.459 7.70631 61.2744 8.40073 60.905 9.01883C60.5433 9.63693 60.0431 10.1215 59.4044 10.4725C58.7657 10.8235 58.05 10.999 57.2574 10.999ZM57.2574 10.4611C57.9346 10.4611 58.5464 10.3084 59.0927 10.0032C59.6391 9.69798 60.07 9.27828 60.3855 8.74411C60.7011 8.20232 60.8588 7.59948 60.8588 6.93559C60.8588 6.27171 60.7011 5.67268 60.3855 5.13852C60.07 4.59673 59.6391 4.17321 59.0927 3.86798C58.5464 3.56274 57.9346 3.41012 57.2574 3.41012C56.5802 3.41012 55.9646 3.56274 55.4106 3.86798C54.8642 4.17321 54.4333 4.59673 54.1178 5.13852C53.8023 5.67268 53.6445 6.27171 53.6445 6.93559C53.6445 7.59948 53.8023 8.20232 54.1178 8.74411C54.4333 9.27828 54.8642 9.69798 55.4106 10.0032C55.9646 10.3084 56.5802 10.4611 57.2574 10.4611Z" fill="black"/>
<path d="M73.1719 10.9418L71.3597 8.36639C72.4101 7.91998 73.0219 7.03861 73.0219 5.83675C73.0219 4.03967 71.6713 2.92938 69.5128 2.92938H66.0153V10.9418H67.8853V8.70978H69.5128H69.6052L71.1635 10.9418H73.1719ZM71.1288 5.83675C71.1288 6.70667 70.5517 7.2332 69.4089 7.2332H67.8853V4.44029H69.4089C70.5517 4.44029 71.1288 4.95538 71.1288 5.83675Z" fill="black"/>
<path d="M76.3618 9.45379V7.59948H80.1132V6.15724H76.3618V4.4174H80.6096V2.92938H74.5034V10.9418H80.7596V9.45379H76.3618Z" fill="black"/>
<path d="M82.2475 10.9418H85.9181C88.5615 10.9418 90.3737 9.36222 90.3737 6.93559C90.3737 4.50897 88.5615 2.92938 85.9181 2.92938H82.2475V10.9418ZM84.1175 9.41945V4.45174H85.8258C87.4303 4.45174 88.4807 5.40179 88.4807 6.93559C88.4807 8.4694 87.4303 9.41945 85.8258 9.41945H84.1175Z" fill="black"/>
<path d="M93.6423 9.45379V7.59948H97.3938V6.15724H93.6423V4.4174H97.8901V2.92938H91.7839V10.9418H98.0402V9.45379H93.6423Z" fill="black"/>
<path d="M102.183 11.0792C104.491 11.0792 105.611 9.93453 105.611 8.59531C105.611 5.65361 100.913 6.67233 100.913 5.19575C100.913 4.69211 101.34 4.28005 102.448 4.28005C103.164 4.28005 103.937 4.48608 104.688 4.90959L105.265 3.50169C104.515 3.03239 103.476 2.79202 102.46 2.79202C100.163 2.79202 99.0548 3.92521 99.0548 5.28732C99.0548 8.26337 103.753 7.2332 103.753 8.73267C103.753 9.22486 103.303 9.59114 102.194 9.59114C101.225 9.59114 100.209 9.24775 99.528 8.75556L98.8932 10.152C99.6088 10.7014 100.902 11.0792 102.183 11.0792Z" fill="black"/>
<path d="M16.0435 20.9001V19.0458H19.7949V17.6036H16.0435V15.8637H20.2912V14.3757H14.1851V22.3881H20.4413V20.9001H16.0435Z" fill="black"/>
<path d="M29.065 22.5255C30.4732 22.5255 31.6391 22.0219 32.4009 21.0947L31.2004 19.9959C30.6579 20.6254 29.9769 20.9459 29.1689 20.9459C27.6568 20.9459 26.5833 19.8928 26.5833 18.3819C26.5833 16.871 27.6568 15.8179 29.1689 15.8179C29.9769 15.8179 30.6579 16.1384 31.2004 16.7565L32.4009 15.6577C31.6391 14.742 30.4732 14.2384 29.0766 14.2384C26.5602 14.2384 24.6903 15.9668 24.6903 18.3819C24.6903 20.7971 26.5602 22.5255 29.065 22.5255Z" fill="black"/>
<path d="M35.5221 20.9001V19.0458H39.2735V17.6036H35.5221V15.8637H39.7699V14.3757H33.6637V22.3881H39.9199V20.9001H35.5221Z" fill="black"/>
<path d="M46.9715 14.3757V19.2404L42.9545 14.3757H41.4078V22.3881H43.2546V17.5235L47.2831 22.3881H48.8183V14.3757H46.9715Z" fill="black"/>
<path d="M52.4037 22.3881H54.2737V15.8866H56.8593V14.3757H49.8181V15.8866H52.4037V22.3881Z" fill="black"/>
<path d="M65.022 22.3881L63.2098 19.8127C64.2602 19.3663 64.8719 18.4849 64.8719 17.2831C64.8719 15.486 63.5214 14.3757 61.3629 14.3757H57.8654V22.3881H59.7354V20.1561H61.3629H61.4553L63.0135 22.3881H65.022ZM62.9789 17.2831C62.9789 18.153 62.4018 18.6795 61.259 18.6795H59.7354V15.8866H61.259C62.4018 15.8866 62.9789 16.4017 62.9789 17.2831Z" fill="black"/>
<path d="M72.3904 22.3881H74.3527L70.7398 14.3757H68.8929L65.2915 22.3881H67.2077L67.9233 20.6712H71.6748L72.3904 22.3881ZM68.5236 19.2633L69.8048 16.1957L71.0861 19.2633H68.5236Z" fill="black"/>
<path d="M75.191 22.3881H77.061V14.3757H75.191V22.3881Z" fill="black"/>
<path d="M81.6334 22.5255C83.942 22.5255 85.0616 21.3809 85.0616 20.0416C85.0616 17.0999 80.3637 18.1187 80.3637 16.6421C80.3637 16.1384 80.7908 15.7264 81.8989 15.7264C82.6145 15.7264 83.3879 15.9324 84.1382 16.3559L84.7153 14.948C83.9651 14.4787 82.9262 14.2384 81.9104 14.2384C79.6134 14.2384 78.5053 15.3715 78.5053 16.7337C78.5053 19.7097 83.2032 18.6795 83.2032 20.179C83.2032 20.6712 82.753 21.0375 81.6449 21.0375C80.6753 21.0375 79.6596 20.6941 78.9785 20.2019L78.3437 21.5983C79.0593 22.1478 80.3521 22.5255 81.6334 22.5255Z" fill="black"/>
<path d="M89.6084 22.3881H93.279C95.9223 22.3881 97.7345 20.8085 97.7345 18.3819C97.7345 15.9553 95.9223 14.3757 93.279 14.3757H89.6084V22.3881ZM91.4783 20.8658V15.8981H93.1866C94.7911 15.8981 95.8415 16.8481 95.8415 18.3819C95.8415 19.9157 94.7911 20.8658 93.1866 20.8658H91.4783Z" fill="black"/>
<path d="M101.003 20.9001V19.0458H104.755V17.6036H101.003V15.8637H105.251V14.3757H99.1448V22.3881H105.401V20.9001H101.003Z" fill="black"/>
<path d="M47.4111 25.822V30.6867L43.3942 25.822H41.8474V33.8345H43.6943V28.9698L47.7227 33.8345H49.2579V25.822H47.4111Z" fill="black"/>
<path d="M53.028 32.3465V30.4921H56.7795V29.0499H53.028V27.3101H57.2758V25.822H51.1696V33.8345H57.4259V32.3465H53.028Z" fill="black"/>
<path d="M64.351 32.0488C63.8777 32.3007 63.4045 32.3922 62.8966 32.3922C61.3498 32.3922 60.2763 31.3277 60.2763 29.8283C60.2763 28.3059 61.3498 27.2643 62.9197 27.2643C63.7392 27.2643 64.4202 27.5504 65.0089 28.1685L66.2094 27.0697C65.4245 26.1654 64.2471 25.6847 62.8273 25.6847C60.2533 25.6847 58.3833 27.4131 58.3833 29.8283C58.3833 32.2434 60.2533 33.9718 62.7927 33.9718C63.947 33.9718 65.1705 33.617 66.0593 32.9531V29.7023H64.351V32.0488Z" fill="black"/>
<path d="M70.659 25.1696H72.0672L74.1565 23.5213H72.2173L70.659 25.1696ZM71.7094 33.9718C74.2488 33.9718 76.1303 32.2205 76.1303 29.8283C76.1303 27.436 74.2488 25.6847 71.7094 25.6847C69.1584 25.6847 67.2885 27.4474 67.2885 29.8283C67.2885 32.2091 69.1584 33.9718 71.7094 33.9718ZM71.7094 32.3922C70.2665 32.3922 69.1815 31.3506 69.1815 29.8283C69.1815 28.3059 70.2665 27.2643 71.7094 27.2643C73.1523 27.2643 74.2373 28.3059 74.2373 29.8283C74.2373 31.3506 73.1523 32.3922 71.7094 32.3922Z" fill="black"/>
<path d="M81.4025 33.9718C82.8108 33.9718 83.9766 33.4682 84.7384 32.541L83.538 31.4422C82.9955 32.0717 82.3144 32.3922 81.5064 32.3922C79.9943 32.3922 78.9208 31.3392 78.9208 29.8283C78.9208 28.3173 79.9943 27.2643 81.5064 27.2643C82.3144 27.2643 82.9955 27.5848 83.538 28.2029L84.7384 27.104C83.9766 26.1883 82.8108 25.6847 81.4141 25.6847C78.8977 25.6847 77.0278 27.4131 77.0278 29.8283C77.0278 32.2434 78.8977 33.9718 81.4025 33.9718Z" fill="black"/>
<path d="M86.0012 33.8345H87.8711V25.822H86.0012V33.8345Z" fill="black"/>
<path d="M93.7017 33.9718C96.2412 33.9718 98.1227 32.2205 98.1227 29.8283C98.1227 27.436 96.2412 25.6847 93.7017 25.6847C91.1508 25.6847 89.2808 27.4474 89.2808 29.8283C89.2808 32.2091 91.1508 33.9718 93.7017 33.9718ZM93.7017 32.3922C92.2589 32.3922 91.1739 31.3506 91.1739 29.8283C91.1739 28.3059 92.2589 27.2643 93.7017 27.2643C95.1446 27.2643 96.2296 28.3059 96.2296 29.8283C96.2296 31.3506 95.1446 32.3922 93.7017 32.3922Z" fill="black"/>
<path d="M102.183 33.9718C104.491 33.9718 105.611 32.8272 105.611 31.488C105.611 28.5463 100.913 29.565 100.913 28.0884C100.913 27.5848 101.34 27.1727 102.448 27.1727C103.164 27.1727 103.937 27.3787 104.688 27.8023L105.265 26.3944C104.515 25.9251 103.476 25.6847 102.46 25.6847C100.163 25.6847 99.0548 26.8179 99.0548 28.18C99.0548 31.156 103.753 30.1259 103.753 31.6253C103.753 32.1175 103.303 32.4838 102.194 32.4838C101.225 32.4838 100.209 32.1404 99.528 31.6482L98.8932 33.0447C99.6088 33.5941 100.902 33.9718 102.183 33.9718Z" fill="black"/>
<path fill-rule="evenodd" clip-rule="evenodd" d="M108.916 0.925781H143.063V11.3762C140.843 11.9861 138.729 12.2081 137.56 12.2334C135.564 12.1902 130.824 11.5748 127.492 9.4385C129.821 11.4279 133.46 15.7098 134.849 20.8302C133.535 21.2874 132.175 21.4396 131.496 21.4524C130.536 21.4343 128.215 21.1375 126.586 20.0934C127.511 20.8836 128.862 22.4181 129.693 24.311C128.61 24.9127 127.195 25.0893 126.586 25.1008C125.935 25.0885 124.363 24.8875 123.259 24.18C124.276 25.0484 126.051 27.2432 125.853 29.6495C124.656 30.3504 123.526 31.2154 122.491 32.2695C122.482 32.2759 122.479 32.279 122.482 32.2786L122.491 32.2695C122.787 32.0585 129.614 28.264 143.063 29.3258V35.0729H108.916V0.925781ZM135.101 8.87577C135.101 10.2339 136.202 11.3349 137.56 11.3349C138.918 11.3349 140.019 10.2339 140.019 8.87577C140.019 7.51762 138.918 6.41662 137.56 6.41662C136.202 6.41662 135.101 7.51762 135.101 8.87577ZM130.147 19.4624C130.147 20.2074 130.751 20.8114 131.496 20.8114C132.241 20.8114 132.845 20.2074 132.845 19.4624C132.845 18.7174 132.241 18.1134 131.496 18.1134C130.751 18.1134 130.147 18.7174 130.147 19.4624ZM125.507 23.4913C125.507 24.0873 125.99 24.5705 126.586 24.5705C127.182 24.5705 127.665 24.0873 127.665 23.4913C127.665 22.8952 127.182 22.4121 126.586 22.4121C125.99 22.4121 125.507 22.8952 125.507 23.4913Z" fill="black"/>
<path d="M127.32 28.8856C128.326 28.4223 129.37 28.0597 130.435 27.7844C130.465 26.5769 130.171 25.4128 129.714 24.3583C128.8 25.2137 127.48 26.9356 127.32 28.8856Z" fill="black"/>
<path d="M132.56 27.3511C133.448 27.2158 134.343 27.1329 135.239 27.0952C135.547 25.1883 135.427 23.3136 135.023 21.5301C133.841 22.9788 132.647 25.0715 132.56 27.3511Z" fill="black"/>
<path d="M139.911 27.2761C140.987 27.3982 142.042 27.5701 143.063 27.7784V14.7509C140.834 18.1846 139.095 22.6407 139.911 27.2761Z" fill="black"/>
<rect x="149.5" y="0.926758" width="2" height="34.1461" fill="#C4C4C4"/>
</svg>
